<?xml version="1.0" encoding="UTF-8" standalone="no"?>
<!-- Created with Inkscape (http://www.inkscape.org/) -->

<svg
   version="1.1"
   id="svg2"
   xml:space="preserve"
   width="666.66663"
   height="666.66663"
   viewBox="0 0 666.66663 666.66663"
   sodipodi:docname="8925abe711c9e588ccabba2cdf7302d1.ai"
   xmlns:inkscape="http://www.inkscape.org/namespaces/inkscape"
   xmlns:sodipodi="http://sodipodi.sourceforge.net/DTD/sodipodi-0.dtd"
   xmlns="http://www.w3.org/2000/svg"
   xmlns:svg="http://www.w3.org/2000/svg"><defs
     id="defs6"><clipPath
       clipPathUnits="userSpaceOnUse"
       id="clipPath18"><path
         d="M 0,500 H 500 V 0 H 0 Z"
         id="path16" /></clipPath><clipPath
       clipPathUnits="userSpaceOnUse"
       id="clipPath430"><path
         d="M 0,500 H 500 V 0 H 0 Z"
         id="path428" /></clipPath></defs><sodipodi:namedview
     id="namedview4"
     pagecolor="#ffffff"
     bordercolor="#666666"
     borderopacity="1.0"
     inkscape:pageshadow="2"
     inkscape:pageopacity="0.0"
     inkscape:pagecheckerboard="0" /><g
     id="g8"
     inkscape:groupmode="layer"
     inkscape:label="8925abe711c9e588ccabba2cdf7302d1"
     transform="matrix(1.3333333,0,0,-1.3333333,0,666.66665)"><path
       d="M 0,0 H 500 V 500 H 0 Z"
       style="fill:#ffffff;fill-opacity:1;fill-rule:nonzero;stroke:none"
       id="path10" /><g
       id="g12"><g
         id="g14"
         clip-path="url(#clipPath18)"><g
           id="g20"
           transform="translate(257.0625,399.916)"><path
             d="m 0,0 c -2.496,-0.04 -3.923,-3.282 -3.43,-5.383 0.136,-0.58 0.618,-0.811 0.934,-0.362 0.876,1.247 1.334,2.943 2.717,3.083 1.565,0.158 2.771,-1.836 3.592,-3.567 0.139,-0.296 0.469,-0.123 0.406,0.251 C 3.702,-2.944 2.364,0.038 0,0"
             style="fill:#0d0d0d;fill-opacity:1;fill-rule:nonzero;stroke:none"
             id="path22" /></g><g
           id="g24"
           transform="translate(260.7061,393.5063)"><path
             d="m 0,0 c 0,-2.425 -0.972,-4.391 -2.169,-4.391 -1.198,0 -2.169,1.966 -2.169,4.391 0,2.425 0.971,4.39 2.169,4.39 C -0.972,4.39 0,2.425 0,0"
             style="fill:#0d0d0d;fill-opacity:1;fill-rule:nonzero;stroke:none"
             id="path26" /></g><g
           id="g28"
           transform="translate(258.1807,392.5103)"><path
             d="m 0,0 c 0,-0.55 -0.667,-0.996 -1.489,-0.996 -0.824,0 -1.49,0.446 -1.49,0.996 0,0.55 0.666,0.996 1.49,0.996 C -0.667,0.996 0,0.55 0,0"
             style="fill:#ffffff;fill-opacity:1;fill-rule:nonzero;stroke:none"
             id="path30" /></g><g
           id="g32"
           transform="translate(257.0625,399.916)"><path
             d="m 0,0 c -2.496,-0.04 -3.923,-3.282 -3.43,-5.383 0.136,-0.58 0.618,-0.811 0.934,-0.362 0.876,1.247 1.334,2.943 2.717,3.083 1.565,0.158 2.771,-1.836 3.592,-3.567 0.139,-0.296 0.469,-0.123 0.406,0.251 C 3.702,-2.944 2.364,0.038 0,0"
             style="fill:#0d0d0d;fill-opacity:1;fill-rule:nonzero;stroke:none"
             id="path34" /></g><g
           id="g36"
           transform="translate(260.7061,393.5063)"><path
             d="m 0,0 c 0,-2.425 -0.972,-4.391 -2.169,-4.391 -1.198,0 -2.169,1.966 -2.169,4.391 0,2.425 0.971,4.39 2.169,4.39 C -0.972,4.39 0,2.425 0,0"
             style="fill:#0d0d0d;fill-opacity:1;fill-rule:nonzero;stroke:none"
             id="path38" /></g><g
           id="g40"
           transform="translate(258.1807,392.5103)"><path
             d="m 0,0 c 0,-0.55 -0.667,-0.996 -1.489,-0.996 -0.824,0 -1.49,0.446 -1.49,0.996 0,0.55 0.666,0.996 1.49,0.996 C -0.667,0.996 0,0.55 0,0"
             style="fill:#ffffff;fill-opacity:1;fill-rule:nonzero;stroke:none"
             id="path42" /></g><g
           id="g44"
           transform="translate(307.1699,325.3193)"><path
             d="m 0,0 c 3.41,-7.401 6.388,-15.061 10.881,-21.858 2.061,-3.12 4.482,-6.149 5.342,-9.789 -2.226,-1.236 -4.384,-2.592 -6.463,-4.06 -2.461,9.145 -8.081,17.062 -12.163,25.607 -3.145,6.583 -5.453,13.687 -9.966,19.419 -1.113,1.413 -2.368,2.756 -3.094,4.403 -0.734,1.669 -1.019,5.116 1.379,5.557 2.192,0.403 4.271,-2.758 5.365,-4.165 C -5.133,10.508 -2.434,5.283 0,0"
             style="fill:#5f7eb4;fill-opacity:1;fill-rule:nonzero;stroke:none"
             id="path46" /></g><g
           id="g48"
           transform="translate(221.8018,271.2227)"><path
             d="m 0,0 c -3.716,-1.2 -7.226,-3.802 -9.839,-6.338 -1.318,-1.279 -2.513,-2.686 -3.559,-4.201 -0.211,-0.306 -0.423,-0.693 -0.259,-1.039 0.136,-0.284 0.49,-0.411 0.796,-0.373 0.305,0.038 0.575,0.203 0.834,0.365 1.219,0.763 2.285,1.726 3.371,2.66 0.861,0.741 2.365,2.395 3.552,2.44 -0.016,0 -0.268,-4.51 -0.281,-4.837 l -0.233,-5.609 c -0.004,-0.088 -0.006,-0.183 0.043,-0.258 0.061,-0.094 0.181,-0.128 0.291,-0.14 0.58,-0.06 1.13,0.294 1.458,0.767 0.328,0.472 0.474,1.05 0.598,1.618 0.461,2.111 0.497,4.222 0.966,6.307 2.277,-2.375 3.66,-5.441 5.482,-8.18 0.574,0.078 1.003,0.595 1.138,1.16 0.29,1.213 -0.57,2.668 -1.103,3.728 -0.752,1.497 -1.399,2.908 -1.797,4.56 2.444,-1.026 4.61,-3.024 6.414,-4.944 0.406,-0.432 1.087,-0.897 1.489,-0.488 0.243,0.248 0.181,0.663 0.081,1.006 -0.317,1.093 -0.856,2.101 -1.561,3 -0.322,0.41 -1.298,1.141 -0.744,1.448 0.502,0.277 2.158,-0.508 2.69,-0.659 0.895,-0.256 1.823,-0.48 2.738,-0.275 1.954,0.437 4.192,2.887 3.233,5.001 -0.978,2.155 -2.975,3.44 -5.197,3.962 C 8.25,1.232 6.151,0.729 3.83,0.68 2.548,0.653 1.262,0.407 0,0"
             style="fill:#b76e49;fill-opacity:1;fill-rule:nonzero;stroke:none"
             id="path50" /></g><g
           id="g52"
           transform="translate(254.0615,295.4341)"><path
             d="m 0,0 c -1.428,-2.738 -2.994,-5.415 -4.52,-8.097 -1.484,-2.611 -3.211,-5.077 -5.15,-7.359 -1.904,-2.24 -4.19,-5.638 -7.445,-5.912 -1.175,-0.098 -2.326,0.391 -3.469,0.735 -2.703,0.815 -5.613,0.833 -8.272,0.052 -2.212,-0.649 -3.857,-1.791 -5.806,-2.915 -1.972,-1.136 -4.151,-1.922 -6.413,-2.302 -0.349,-0.058 -0.717,-0.115 -0.991,-0.334 -2.171,-1.736 2.854,-3.146 4.014,-2.902 2.724,0.574 5.256,1.501 8.119,1.589 2.049,0.064 4.204,-0.197 5.957,-1.331 1.797,-1.163 3.752,-2.323 5.989,-2.009 2.91,0.408 4.963,3.365 7.087,5.042 2.368,1.87 4.603,3.913 6.72,6.063 4.194,4.259 7.913,8.975 11.256,13.942 1.766,2.626 3.445,5.352 4.466,8.368 1.022,3.016 1.353,6.371 0.405,9.478 C 9.838,11.924 7.728,11.74 5.617,11.556 4.649,11.471 3.66,11.144 3.446,10.07 2.743,6.545 1.678,3.217 0,0"
             style="fill:#c2805b;fill-opacity:1;fill-rule:nonzero;stroke:none"
             id="path54" /></g><g
           id="g56"
           transform="translate(335.3437,140.0195)"><path
             d="m 0,0 c 0.19,-0.247 -8.319,-10.905 -8.319,-10.905 0,0 3.283,-4.463 -0.326,-13.517 -3.608,-9.055 -5.301,-8.871 -3.453,-11.756 1.848,-2.884 1.463,-1.71 1.463,-1.71 l 22.203,31.397 c 0.222,0.314 0.086,0.768 -0.286,0.951 z"
             style="fill:#080f1b;fill-opacity:1;fill-rule:nonzero;stroke:none"
             id="path58" /></g><g
           id="g60"
           transform="translate(329.4961,145.6699)"><path
             d="m 0,0 -10.2,-14.428 -3.269,1.997 c 0.121,0.112 0.242,0.212 0.364,0.314 2.108,1.796 4.226,3.641 5.81,5.902 0.606,0.888 1.16,1.866 1.342,2.956 0.545,3.218 -3.259,5.307 -5.549,7.154 -1.705,1.361 -21.097,15.173 -41.416,29.419 -0.151,22.54 -0.464,42.799 -1.02,44.715 -1.26,4.369 -3.955,8.446 -7.848,10.292 -0.98,0.464 -2.038,0.786 -3.118,0.716 -1.362,-0.1 -2.623,-0.827 -3.733,-1.695 -0.253,-0.201 -0.514,-0.404 -0.757,-0.635 l -1.08,36.634 22.268,-4.561 -0.666,-83.63 z"
             style="fill:#273043;fill-opacity:1;fill-rule:nonzero;stroke:none"
             id="path62" /></g><g
           id="g64"
           transform="translate(326.0049,124.0371)"><path
             d="m 0,0 c 0.164,0.006 0.315,0.075 0.473,0.153 2.188,1.076 3.681,2.629 5.136,4.521 1.18,1.546 2.36,3.091 3.492,4.67 1.119,1.561 2.329,3.396 2.978,5.222 0.202,0.575 0.359,1.207 0.141,1.807 -0.145,0.414 -0.444,0.774 -0.74,1.118 -1.18,1.363 -2.36,2.724 -3.54,4.086 -0.573,0.675 -1.151,1.341 -1.813,1.931 -0.577,0.503 -1.011,0.756 -1.4,0.721 C 4.424,24.212 4.174,24.024 3.909,23.67 L 3.77,23.472 C 3.199,22.604 2.58,21.771 1.981,20.923 1.738,20.621 1.516,20.306 1.293,19.99 L -3.642,13.014 C -5.279,10.697 -7.246,8.41 -8.612,5.942 -6.831,5.143 -4.988,4.285 -3.42,3.122 -2.503,2.46 -1.673,1.697 -1.015,0.771 -0.956,0.689 -0.878,0.594 -0.81,0.505 -0.595,0.231 -0.322,-0.002 0,0"
             style="fill:#304552;fill-opacity:1;fill-rule:nonzero;stroke:none"
             id="path66" /></g><g
           id="g68"
           transform="translate(317.3926,129.9795)"><path
             d="m 0,0 c 1.781,-0.8 3.624,-1.657 5.192,-2.82 -0.37,1.167 -0.897,2.298 -1.549,3.354 -0.196,0.3 -0.395,0.616 -0.5,0.962 -0.282,0.942 0.288,1.851 0.836,2.626 1.31,1.873 2.581,3.774 3.823,5.694 1.12,1.749 2.218,3.529 3.28,5.32 0.324,0.541 1.173,1.617 1.439,2.592 L 12.382,17.529 C 11.598,16.339 10.721,15.202 9.905,14.048 L 4.971,7.071 C 3.333,4.755 1.366,2.468 0,0"
             style="fill:#3f5868;fill-opacity:1;fill-rule:nonzero;stroke:none"
             id="path70" /></g><g
           id="g72"
           transform="translate(326.0049,124.0371)"><path
             d="m 0,0 c 0.164,0.006 0.315,0.075 0.473,0.153 2.188,1.076 3.681,2.629 5.136,4.521 1.18,1.546 2.36,3.091 3.492,4.67 1.119,1.561 2.329,3.396 2.978,5.222 0.202,0.575 0.359,1.207 0.141,1.807 -0.145,0.414 -0.444,0.774 -0.74,1.118 -1.18,1.363 -2.36,2.724 -3.54,4.086 -0.573,0.675 -1.151,1.341 -1.813,1.931 -0.577,0.503 -1.011,0.756 -1.4,0.721 C 4.424,24.212 4.174,24.024 3.909,23.67 L 3.77,23.472 C 3.199,22.604 2.58,21.771 1.981,20.923 2.447,20.594 2.988,20.306 3.562,19.941 4.844,19.115 6.241,17.979 6.187,16.543 6.161,15.723 5.645,15.033 5.156,14.405 4.088,13.038 3.02,11.671 1.95,10.304 1.832,10.157 1.721,9.979 1.783,9.8 1.879,9.502 2.308,9.51 2.594,9.605 4.046,10.093 5.219,11.318 6.788,11.331 6.877,10.755 6.574,10.225 6.259,9.758 4.142,6.496 1.781,3.405 -0.81,0.505 -0.595,0.231 -0.322,-0.002 0,0"
             style="fill:#273043;fill-opacity:1;fill-rule:nonzero;stroke:none"
             id="path74" /></g><g
           id="g76"
           transform="translate(317.9912,149.5674)"><path
             d="m 0,0 c -1.697,1.361 -21.098,15.168 -41.413,29.414 -0.15,22.542 -0.461,42.803 -1.017,44.723 -1.258,4.368 -3.952,8.439 -7.849,10.284 -0.983,0.465 -2.042,0.786 -3.124,0.714 -1.359,-0.095 -2.617,-0.822 -3.732,-1.69 -0.254,-0.203 -0.508,-0.405 -0.751,-0.631 l 0.358,-22.649 c 0.173,-10.965 0.84,-22.048 0.521,-33.01 -0.188,-6.474 4.875,-9.176 9.533,-12.36 4.551,-3.111 9.102,-6.224 13.653,-9.335 9.049,-6.189 18.098,-12.376 27.148,-18.564 1.569,-1.074 3.139,-2.146 4.708,-3.219 0.118,0.105 0.247,0.204 0.365,0.309 2.103,1.799 4.222,3.64 5.806,5.901 0.614,0.89 1.161,1.869 1.346,2.955 C 6.098,-3.934 2.293,-1.851 0,0"
             style="fill:#304552;fill-opacity:1;fill-rule:nonzero;stroke:none"
             id="path78" /></g><g
           id="g80"
           transform="translate(361.6338,139.4326)"><path
             d="m 0,0 c 0.19,-0.246 -8.319,-10.905 -8.319,-10.905 0,0 3.283,-4.463 -0.326,-13.517 -3.608,-9.054 -5.301,-8.871 -3.454,-11.756 1.849,-2.884 1.464,-1.71 1.464,-1.71 L 11.568,-6.49 c 0.222,0.313 0.085,0.767 -0.286,0.95 z"
             style="fill:#111f37;fill-opacity:1;fill-rule:nonzero;stroke:none"
             id="path82" /></g><g
           id="g84"
           transform="translate(355.7861,145.083)"><path
             d="m 0,0 -10.2,-14.428 -3.27,1.997 c 0.121,0.112 0.242,0.212 0.364,0.314 2.109,1.796 4.227,3.641 5.811,5.902 0.606,0.888 1.16,1.866 1.342,2.956 0.545,3.218 -3.259,5.307 -5.549,7.154 -1.705,1.361 -21.097,15.173 -41.416,29.419 -0.151,22.54 -0.465,42.799 -1.02,44.716 -1.26,4.368 -3.955,8.445 -7.849,10.291 -0.979,0.464 -2.038,0.786 -3.117,0.716 -1.363,-0.1 -2.623,-0.827 -3.734,-1.695 -0.252,-0.201 -0.513,-0.404 -0.756,-0.635 l -1.08,36.634 22.268,-4.561 -0.666,-83.63 z"
             style="fill:#38455f;fill-opacity:1;fill-rule:nonzero;stroke:none"
             id="path86" /></g><g
           id="g88"
           transform="translate(352.2949,123.4502)"><path
             d="m 0,0 c 0.164,0.006 0.315,0.075 0.473,0.153 2.188,1.076 3.681,2.629 5.135,4.521 1.181,1.546 2.361,3.091 3.493,4.67 1.119,1.561 2.329,3.396 2.978,5.222 0.202,0.575 0.359,1.207 0.141,1.807 -0.145,0.414 -0.445,0.774 -0.741,1.119 -1.179,1.362 -2.359,2.723 -3.54,4.085 -0.572,0.675 -1.15,1.341 -1.812,1.931 -0.577,0.503 -1.011,0.756 -1.4,0.721 C 4.424,24.213 4.174,24.024 3.909,23.67 L 3.769,23.472 C 3.199,22.604 2.58,21.771 1.981,20.923 1.738,20.621 1.516,20.306 1.292,19.99 L -3.642,13.014 C -5.279,10.697 -7.246,8.41 -8.613,5.942 -6.831,5.143 -4.988,4.285 -3.42,3.122 -2.503,2.46 -1.673,1.697 -1.015,0.771 -0.956,0.689 -0.878,0.594 -0.81,0.505 -0.595,0.231 -0.322,-0.002 0,0"
             style="fill:#415d6e;fill-opacity:1;fill-rule:nonzero;stroke:none"
             id="path90" /></g><g
           id="g92"
           transform="translate(343.6816,129.3926)"><path
             d="M 0,0 C 1.782,-0.8 3.625,-1.657 5.193,-2.82 4.823,-1.653 4.296,-0.522 3.644,0.534 3.447,0.834 3.249,1.15 3.143,1.496 2.862,2.438 3.432,3.347 3.979,4.122 c 1.31,1.873 2.582,3.774 3.823,5.694 1.121,1.749 2.219,3.529 3.281,5.32 0.324,0.541 1.173,1.618 1.439,2.592 l -0.14,-0.199 c -0.783,-1.19 -1.66,-2.327 -2.477,-3.481 L 4.972,7.071 C 3.334,4.755 1.367,2.468 0,0"
             style="fill:#507084;fill-opacity:1;fill-rule:nonzero;stroke:none"
             id="path94" /></g><g
           id="g96"
           transform="translate(352.2949,123.4502)"><path
             d="m 0,0 c 0.164,0.006 0.315,0.075 0.473,0.153 2.188,1.076 3.681,2.629 5.135,4.521 1.181,1.546 2.361,3.091 3.493,4.67 1.119,1.561 2.329,3.396 2.978,5.222 0.202,0.575 0.359,1.207 0.141,1.807 -0.145,0.414 -0.445,0.774 -0.741,1.119 -1.179,1.362 -2.359,2.723 -3.54,4.085 -0.572,0.675 -1.15,1.341 -1.812,1.931 -0.577,0.503 -1.011,0.756 -1.4,0.721 C 4.424,24.213 4.174,24.024 3.909,23.67 L 3.769,23.472 C 3.199,22.604 2.58,21.771 1.981,20.923 2.447,20.594 2.988,20.306 3.562,19.941 4.844,19.115 6.24,17.979 6.187,16.543 6.161,15.723 5.645,15.033 5.156,14.405 4.088,13.038 3.019,11.671 1.95,10.304 1.832,10.157 1.721,9.979 1.783,9.8 1.879,9.502 2.308,9.51 2.594,9.605 4.046,10.093 5.219,11.318 6.788,11.331 6.876,10.755 6.574,10.225 6.259,9.758 4.142,6.496 1.781,3.405 -0.81,0.505 -0.595,0.231 -0.322,-0.002 0,0"
             style="fill:#38455f;fill-opacity:1;fill-rule:nonzero;stroke:none"
             id="path98" /></g><g
           id="g100"
           transform="translate(344.2812,148.9805)"><path
             d="m 0,0 c -1.697,1.361 -21.098,15.168 -41.413,29.414 -0.15,22.542 -0.461,42.803 -1.017,44.723 -1.258,4.368 -3.953,8.439 -7.849,10.284 -0.983,0.465 -2.042,0.786 -3.124,0.715 -1.359,-0.096 -2.618,-0.823 -3.732,-1.691 -0.254,-0.202 -0.508,-0.405 -0.751,-0.631 0.119,-7.549 0.238,-15.099 0.357,-22.649 0.173,-10.965 0.841,-22.048 0.522,-33.01 -0.188,-6.474 4.875,-9.176 9.533,-12.36 4.551,-3.111 9.102,-6.224 13.653,-9.335 9.049,-6.189 18.098,-12.376 27.147,-18.564 1.57,-1.073 3.14,-2.146 4.709,-3.219 0.118,0.105 0.246,0.204 0.365,0.309 2.103,1.799 4.222,3.64 5.805,5.901 0.615,0.89 1.162,1.869 1.347,2.955 C 6.098,-3.934 2.292,-1.851 0,0"
             style="fill:#415d6e;fill-opacity:1;fill-rule:nonzero;stroke:none"
             id="path102" /></g><g
           id="g104"
           transform="translate(260.04,352.7085)"><path
             d="m 0,0 c -2.017,-1.971 -3.051,-4.555 -3.969,-7.083 -3.706,-10.197 -6.334,-20.669 -8.958,-31.124 5.156,-3.51 11.862,-5.203 18.344,-4.632 0.649,0.057 1.334,0.15 1.839,0.514 0.694,0.501 0.858,1.363 0.974,2.147 1.28,8.585 2.558,17.169 3.837,25.754 0.45,3.017 0.899,6.082 0.371,9.089 C 11.411,0.511 5.816,5.682 0,0"
             style="fill:#454775;fill-opacity:1;fill-rule:nonzero;stroke:none"
             id="path106" /></g><g
           id="g108"
           transform="translate(308.6006,275.2935)"><path
             d="m 0,0 c -4.33,9.585 -7.715,19.598 -10.101,29.841 -1.767,7.592 -2.987,15.311 -3.634,23.079 -0.551,6.616 1.162,12.105 1.554,18.627 0.162,2.567 0.134,5.211 -0.761,7.622 -0.198,0.522 -0.43,0.988 -0.705,1.404 -0.522,0.789 -1.185,1.396 -1.954,1.862 -0.598,0.366 -1.261,0.641 -1.973,0.853 -1.044,0.303 -2.201,0.456 -3.408,0.539 -0.085,0.005 -0.177,0.001 -0.263,0.005 -0.707,0.036 -1.428,0.053 -2.168,0.041 -0.376,-0.005 -0.76,-0.02 -1.142,-0.035 -0.684,-0.025 -1.372,-0.058 -2.058,-0.097 -0.161,-0.014 -0.323,-0.024 -0.484,-0.033 -0.132,-0.008 -0.264,-0.016 -0.398,-0.026 h -0.17 c -0.027,0 -0.07,-0.007 -0.099,-0.007 -1.953,-0.112 -3.913,-0.268 -5.851,-0.458 -0.367,-0.028 -0.734,-0.071 -1.094,-0.106 -0.815,-0.085 -1.63,-0.185 -2.442,-0.286 -0.27,-0.033 -0.541,-0.06 -0.81,-0.095 -0.259,-0.025 -0.51,-0.06 -0.777,-0.094 -0.769,-0.095 -1.529,-0.199 -2.297,-0.311 -0.027,-0.006 -0.05,-0.011 -0.075,-0.016 -0.017,-0.003 -0.034,-0.006 -0.05,-0.009 -0.543,-0.084 -1.071,-0.204 -1.579,-0.373 -3.781,-1.185 -6.657,-4.414 -8.469,-7.869 -2.207,-4.21 -2.665,-7.961 -2.799,-12.509 -0.014,-0.451 -0.028,-0.909 -0.036,-1.375 -0.042,-2.242 -0.084,-4.477 -0.126,-6.713 -0.456,-24.099 2.69,-57.275 -1.4,-81.09 3.718,-1.841 8.868,-1.596 12.951,-2.02 5.251,-0.545 10.566,-0.467 15.803,0.204 7.553,0.968 14.226,3.478 21.235,6.264 1.859,0.739 14.329,6.481 13.054,8.671 C 4.735,-9.806 2.241,-4.96 0,0"
             style="fill:#515487;fill-opacity:1;fill-rule:nonzero;stroke:none"
             id="path110" /></g><g
           id="g112"
           transform="translate(269.9092,372.0146)"><path
             d="m 0,0 c 0.021,-2.681 0.146,-5.289 0.3,-7.889 0,-0.059 0.007,-0.11 0.007,-0.168 -0.007,-0.066 0.014,-0.095 0,-0.146 0.007,-0.059 0.007,-0.103 0.007,-0.153 0.043,-0.417 0.066,-0.833 0.102,-1.257 0.015,-0.182 0.029,-0.358 0.037,-0.54 v -0.015 c 0.036,-0.548 0.08,-1.11 0.124,-1.673 0.029,-0.372 0.051,-0.745 0.08,-1.117 0.008,-0.205 0.037,-0.432 0.052,-0.651 v -0.014 c 0.036,-0.497 0.065,-0.986 0.116,-1.49 0.052,-0.541 0.088,-1.081 0.132,-1.637 0.212,-2.666 -0.38,-7.144 2.294,-7.48 0.913,-0.117 1.782,0.307 2.585,0.774 4.441,2.55 6.107,5.611 6.268,10.987 0.022,0.08 0.007,0.204 0.007,0.38 -0.014,0.285 -0.036,0.715 -0.065,1.234 0.007,0.073 -0.008,0.125 -0.008,0.197 -0.015,0.249 -0.029,0.505 -0.044,0.775 -0.015,0.212 -0.021,0.438 -0.029,0.664 -0.022,0.249 -0.029,0.527 -0.044,0.797 -0.007,0.138 -0.015,0.277 -0.028,0.416 -0.008,0.139 -0.016,0.277 -0.023,0.424 -0.065,0.832 -0.117,1.702 -0.182,2.542 -0.051,0.774 -0.118,1.534 -0.162,2.221 -0.087,0.92 -0.145,1.716 -0.211,2.315 C 11.242,0.153 11.176,0.526 11.14,0.533 11.125,0.533 0,0 0,0"
             style="fill:#c2805b;fill-opacity:1;fill-rule:nonzero;stroke:none"
             id="path114" /></g><g
           id="g116"
           transform="translate(269.9092,372.0146)"><path
             d="m 0,0 c 0.021,-2.681 0.146,-5.289 0.3,-7.889 0,-0.059 0.007,-0.11 0.007,-0.168 -0.007,-0.066 0.014,-0.095 0,-0.146 0.007,-0.059 0.007,-0.103 0.007,-0.153 0.043,-0.417 0.066,-0.833 0.102,-1.257 0.015,-0.182 0.029,-0.358 0.037,-0.54 v -0.015 c 0.036,-0.548 0.08,-1.11 0.124,-1.673 3.046,-0.782 8.109,0.19 11.417,1.958 -0.015,0.212 -0.021,0.438 -0.029,0.664 -0.022,0.249 -0.029,0.527 -0.044,0.797 -0.007,0.138 -0.015,0.277 -0.028,0.416 -0.008,0.139 -0.016,0.277 -0.023,0.424 -0.065,0.832 -0.117,1.702 -0.182,2.542 -0.051,0.774 -0.118,1.534 -0.162,2.221 -0.087,0.92 -0.145,1.716 -0.211,2.315 C 11.242,0.153 11.176,0.526 11.14,0.533 11.125,0.533 0,0 0,0"
             style="fill:#a86e51;fill-opacity:1;fill-rule:nonzero;stroke:none"
             id="path118" /></g><g
           id="g120"
           transform="translate(297.9561,391.0576)"><path
             d="m 0,0 c -0.257,-1.666 -0.523,-3.323 -0.885,-4.96 -0.523,-2.418 -1.247,-4.779 -2.381,-7.026 -3.36,-6.645 -9.32,-12.624 -16.546,-15.004 -3.027,-0.99 -6.54,-1.048 -9.691,-0.771 -3.77,0.324 -8.017,1.418 -11.12,3.694 -1.694,1.247 -2.246,3.503 -2.627,5.569 -1.562,8.435 -2.237,17.003 -2.656,25.552 -0.115,2.362 -0.343,5.084 -0.267,7.807 0.076,2.913 0.495,5.731 1.656,8.244 v 0.01 c 0.696,1.504 1.666,2.904 2.98,4.132 2.351,2.209 5.294,3.694 8.293,4.874 7.34,2.875 17.089,4.008 24.533,0.429 C 3.979,26.437 1.78,11.681 0,0"
             style="fill:#c2805b;fill-opacity:1;fill-rule:nonzero;stroke:none"
             id="path122" /></g><g
           id="g124"
           transform="translate(257.0625,399.916)"><path
             d="m 0,0 c -2.496,-0.04 -3.923,-3.282 -3.43,-5.383 0.136,-0.58 0.618,-0.811 0.934,-0.362 0.876,1.247 1.334,2.943 2.717,3.083 1.565,0.158 2.771,-1.836 3.592,-3.567 0.139,-0.296 0.469,-0.123 0.406,0.251 C 3.702,-2.944 2.364,0.038 0,0"
             style="fill:#0d0d0d;fill-opacity:1;fill-rule:nonzero;stroke:none"
             id="path126" /></g><g
           id="g128"
           transform="translate(260.7061,393.5063)"><path
             d="m 0,0 c 0,-2.425 -0.972,-4.391 -2.169,-4.391 -1.198,0 -2.169,1.966 -2.169,4.391 0,2.425 0.971,4.39 2.169,4.39 C -0.972,4.39 0,2.425 0,0"
             style="fill:#0d0d0d;fill-opacity:1;fill-rule:nonzero;stroke:none"
             id="path130" /></g><g
           id="g132"
           transform="translate(258.1807,392.5103)"><path
             d="m 0,0 c 0,-0.55 -0.667,-0.996 -1.489,-0.996 -0.824,0 -1.49,0.446 -1.49,0.996 0,0.55 0.666,0.996 1.49,0.996 C -0.667,0.996 0,0.55 0,0"
             style="fill:#ffffff;fill-opacity:1;fill-rule:nonzero;stroke:none"
             id="path134" /></g><g
           id="g136"
           transform="translate(277.2236,399.2007)"><path
             d="m 0,0 c -2.496,-0.04 -3.923,-3.282 -3.43,-5.383 0.137,-0.58 0.618,-0.811 0.934,-0.362 0.876,1.247 1.334,2.943 2.717,3.083 1.565,0.158 2.772,-1.836 3.592,-3.567 0.14,-0.296 0.469,-0.123 0.406,0.251 C 3.702,-2.944 2.364,0.038 0,0"
             style="fill:#0d0d0d;fill-opacity:1;fill-rule:nonzero;stroke:none"
             id="path138" /></g><g
           id="g140"
           transform="translate(280.8672,392.791)"><path
             d="m 0,0 c 0,-2.425 -0.971,-4.391 -2.169,-4.391 -1.197,0 -2.169,1.966 -2.169,4.391 0,2.425 0.972,4.39 2.169,4.39 C -0.971,4.39 0,2.425 0,0"
             style="fill:#0d0d0d;fill-opacity:1;fill-rule:nonzero;stroke:none"
             id="path142" /></g><g
           id="g144"
           transform="translate(278.3418,391.7949)"><path
             d="m 0,0 c 0,-0.55 -0.667,-0.996 -1.489,-0.996 -0.824,0 -1.49,0.446 -1.49,0.996 0,0.55 0.666,0.996 1.49,0.996 C -0.667,0.996 0,0.55 0,0"
             style="fill:#ffffff;fill-opacity:1;fill-rule:nonzero;stroke:none"
             id="path146" /></g><g
           id="g148"
           transform="translate(267.9199,367.7495)"><path
             d="m 0,0 c -1.44,0.063 -3.749,0.461 -4.58,1.657 -0.37,0.533 -0.444,1.185 -0.542,1.808 -0.326,2.076 -1.084,4.042 -1.959,5.97 -0.021,0.046 -0.04,0.102 -0.008,0.142 0.027,0.033 0.076,0.04 0.121,0.044 4.259,0.401 8.395,0.868 12.335,2.54 C 5.257,11.966 5.473,11.317 5.499,11.109 5.6,10.328 5.7,9.546 5.797,8.764 6.093,6.376 6.663,3.055 4.686,1.121 3.475,-0.063 1.646,-0.073 0,0"
             style="fill:#f6e4b4;fill-opacity:1;fill-rule:nonzero;stroke:none"
             id="path150" /></g><g
           id="g152"
           transform="translate(263.4854,391.1255)"><path
             d="m 0,0 c -0.162,-0.915 -0.448,-1.817 -0.947,-2.601 -0.547,-0.858 -1.329,-1.543 -1.91,-2.378 -0.581,-0.835 -0.951,-1.939 -0.537,-2.869 0.294,-0.658 0.939,-1.11 1.628,-1.322 0.689,-0.212 1.423,-0.214 2.144,-0.181 0.932,0.042 1.876,0.143 2.74,0.494 0.865,0.351 1.65,0.98 2.015,1.839 0.202,0.478 0.263,1.041 0.046,1.513 -0.332,0.718 -1.175,1.021 -1.755,1.559 -0.475,0.44 -0.768,1.038 -1.027,1.632 C 2.075,-1.579 1.791,-0.827 1.543,-0.063 1.288,0.723 1.226,1.817 0.856,2.537 0.609,3.017 0.412,3.302 0.125,2.721 -0.146,2.175 0.118,0.669 0,0"
             style="fill:#a86e51;fill-opacity:1;fill-rule:nonzero;stroke:none"
             id="path154" /></g><g
           id="g156"
           transform="translate(299.4385,391.5781)"><path
             d="m 0,0 c 1.206,-1.06 0.643,-3.229 -0.709,-4.097 -1.605,-1.031 -4.02,-0.569 -5.844,-1.064 -1.346,-0.366 -2.663,-2.611 -2.4,-4.053 -0.653,3.585 -0.985,7.228 -0.99,10.871 -0.87,1.241 -0.185,3.246 1.262,3.694 -1.162,-0.211 -2.317,0.793 -2.509,1.959 -0.194,1.166 0.413,2.358 1.31,3.128 -1.016,0.007 -2.253,0.153 -2.657,1.084 -0.275,0.634 -0.016,1.374 0.36,1.953 0.377,0.579 0.872,1.088 1.138,1.724 -0.71,-0.126 -1.444,-0.252 -2.146,-0.084 -0.701,0.169 -1.364,0.714 -1.435,1.431 -0.096,0.964 0.848,1.725 1.024,2.678 -0.949,-0.29 -2.032,-0.489 -2.892,0.006 -0.861,0.496 -1.124,1.967 -0.247,2.432 -0.765,-0.261 -1.402,-0.817 -2.165,-1.083 -0.764,-0.266 -1.81,-0.088 -2.07,0.677 -0.259,0.759 0.411,1.541 0.364,2.342 0.056,-0.939 -2.632,-2.148 -3.28,-2.401 -0.598,-0.233 -1.282,-0.362 -1.876,-0.115 -0.592,0.245 -1.01,0.977 -0.733,1.556 -0.657,-0.977 -1.596,-1.763 -2.674,-2.24 -0.245,-0.109 -0.511,-0.204 -0.777,-0.168 -0.512,0.067 -0.853,0.608 -0.875,1.123 -0.024,0.515 0.191,1.008 0.401,1.479 -0.727,-0.618 -1.489,-1.194 -2.279,-1.728 -0.62,-0.419 -1.42,-0.82 -2.078,-0.464 -0.489,0.264 -0.7,0.878 -0.651,1.43 0.05,0.553 0.309,1.061 0.564,1.554 -1.184,-0.918 -2.469,-1.705 -3.825,-2.341 -0.424,-0.2 -0.873,-0.387 -1.341,-0.375 -0.469,0.013 -0.961,0.281 -1.091,0.732 -0.074,0.256 -0.024,0.532 0.046,0.79 0.194,0.715 0.535,1.39 0.995,1.97 -1.128,-0.973 -2.255,-1.946 -3.382,-2.92 -0.85,-0.733 -1.957,-1.516 -2.996,-1.092 -0.2,0.082 -0.392,0.216 -0.478,0.414 -0.107,0.247 -0.03,0.533 0.066,0.785 0.371,0.973 1.011,1.816 1.641,2.644 -1.824,-1.66 -4.979,-2.703 -7.273,-1.47 -1.928,1.035 -3.254,3.222 -2.193,5.387 0.832,1.699 3.055,2.559 4.814,1.863 -1.204,1.826 -0.74,4.552 1.001,5.877 1.74,1.324 4.491,1.046 5.931,-0.601 -1.158,2.387 0.079,5.63 2.533,6.638 2.454,1.01 5.614,-0.425 6.471,-2.936 0.253,1.329 0.521,2.699 1.281,3.819 0.759,1.119 2.147,1.929 3.458,1.593 1.398,-0.359 2.186,-1.8 2.811,-3.101 0.269,1.394 1.191,3.467 2.897,3.194 1.473,-0.235 2.083,-1.209 2.678,-2.431 0.78,1.958 3.011,3.221 5.091,2.882 2.081,-0.339 3.796,-2.244 3.916,-4.348 0.702,1.664 3.176,2.095 4.573,0.949 1.395,-1.146 1.587,-3.384 0.642,-4.923 1.183,1.255 3.357,1.513 4.676,0.401 1.318,-1.111 1.328,-3.498 -0.096,-4.472 1.632,0.779 3.784,-0.234 4.429,-1.922 0.646,-1.689 -0.12,-3.731 -1.59,-4.783 1.817,0.032 3.576,-1.266 4.08,-3.012 C 5.405,21.089 4.608,19.053 3.054,18.112 4.273,18.721 5.775,17.364 5.694,16.004 5.613,14.645 4.462,13.565 3.216,13.015 4.563,13.235 5.98,12.147 6.116,10.789 6.252,9.43 5.08,8.083 3.716,8.031 4.938,7.817 5.432,6.114 4.785,5.055 4.139,3.995 2.785,3.565 1.544,3.597 2.562,3.55 3.098,2.167 2.613,1.271 2.129,0.375 1.019,-0.011 0,0"
             style="fill:#2c2c2c;fill-opacity:1;fill-rule:nonzero;stroke:none"
             id="path158" /></g><g
           id="g160"
           transform="translate(292.9326,391.6577)"><path
             d="M 0,0 C 0.916,2.778 2.561,5.06 5.656,5.584 6.281,5.69 6.939,5.7 7.53,5.473 8.468,5.115 9.098,4.224 9.505,3.307 10.392,1.309 10.468,-0.985 10.027,-3.127 9.586,-5.269 8.654,-7.28 7.586,-9.188 6.585,-10.979 5.162,-12.885 3.115,-13.034 0.439,-13.229 -1.524,-11.712 -1.319,-9.037 -1.124,-6.476 -0.975,-2.957 0,0"
             style="fill:#a86e51;fill-opacity:1;fill-rule:nonzero;stroke:none"
             id="path162" /></g><g
           id="g164"
           transform="translate(386.2314,453)"><path
             d="m 0,0 -42.2,-22.746 30.11,-55.864 42.2,22.745 z"
             style="fill:#692426;fill-opacity:1;fill-rule:nonzero;stroke:none"
             id="path166" /></g><g
           id="g168"
           transform="translate(384.5234,452.0791)"><path
             d="m 0,0 -36.904,-19.891 30.11,-55.864 36.904,19.891 z"
             style="fill:#e4e5e6;fill-opacity:1;fill-rule:nonzero;stroke:none"
             id="path170" /></g><g
           id="g172"
           transform="translate(380.9355,450.1455)"><path
             d="m 0,0 -36.904,-19.891 30.11,-55.864 36.904,19.89 z"
             style="fill:#772b2d;fill-opacity:1;fill-rule:nonzero;stroke:none"
             id="path174" /></g><g
           id="g176"
           transform="translate(340.71,375.021)"><path
             d="m 0,0 c 4.175,3.463 8.006,7.38 11.439,11.665 1.508,1.881 3.434,4.225 3.567,6.724 0.143,2.689 -1.145,5.643 -2.103,8.09 -1.229,3.14 -2.243,6.872 -0.44,9.722 0.19,0.302 0.469,0.616 0.825,0.602 0.391,-0.015 0.643,-0.405 0.826,-0.749 1.55,-2.901 3.1,-5.802 4.65,-8.703 1.419,2.837 3.505,5.338 6.042,7.243 0.838,-0.71 0.786,-2.046 0.341,-3.05 -0.445,-1.004 -1.194,-1.856 -1.595,-2.877 -0.919,-2.341 0.152,-4.933 0.443,-7.431 0.528,-4.525 -3.001,-7.779 -5.209,-11.313 -8.864,-14.184 -21.967,-26.651 -36.804,-34.298 -3.644,-1.878 -7.412,-3.506 -11.176,-5.132 -4.395,-1.899 -8.789,-3.797 -13.185,-5.696 -9.625,-4.157 -14.976,18.012 -7.597,18.569 5.993,0.452 11.802,0.134 17.786,1.261 C -20.178,-13.111 -9.247,-7.67 0,0"
             style="fill:#c2805b;fill-opacity:1;fill-rule:nonzero;stroke:none"
             id="path178" /></g><g
           id="g180"
           transform="translate(314.5781,366.1104)"><path
             d="m 0,0 c 1.762,-6.388 3.084,-12.897 3.955,-19.466 -9.043,-6.24 -19.05,-11.08 -29.556,-14.296 -1.79,-0.548 -3.835,-1.023 -5.448,-0.073 -5.867,3.455 -3.054,15.44 -1.087,20.298 0.53,1.308 1.173,2.604 2.17,3.604 1.292,1.295 3.058,1.979 4.768,2.628 C -22.981,-6.464 0.437,-1.588 0,0"
             style="fill:#515487;fill-opacity:1;fill-rule:nonzero;stroke:none"
             id="path182" /></g><g
           id="g184"
           transform="translate(350.8779,280.4736)"><path
             d="m 0,0 c -0.118,-1.775 -0.872,-3.431 -1.611,-5.028 -3.343,-7.188 -7.04,-14.198 -11.063,-21.015 -2.085,-3.535 -4.304,-7.055 -7.039,-10.057 -0.932,-1.005 -1.908,-1.966 -2.973,-2.839 -4.895,-4.038 -12.023,-6.137 -17.658,-3.224 -2.735,1.42 -4.805,3.845 -6.728,6.27 -4.673,5.96 -8.859,12.319 -12.467,18.989 -2.958,5.472 -5.591,11.462 -5.117,17.658 0.074,1.006 0.236,2.041 0.769,2.913 0.133,0.237 0.311,0.459 0.502,0.666 0.296,0.355 0.666,0.68 1.021,1.005 3.505,3.032 7.512,5.546 10.293,9.229 1.553,2.056 2.721,4.348 4.185,6.448 1.435,2.07 4.052,3.638 6.256,4.777 2.514,1.301 5.857,-0.089 8.281,-1.065 4.556,-1.849 8.993,-3.964 13.414,-6.093 5.427,-2.589 10.944,-5.25 15.336,-9.362 C -1.996,6.832 0.267,3.564 0,0"
             style="fill:#698bc7;fill-opacity:1;fill-rule:nonzero;stroke:none"
             id="path186" /></g><g
           id="g188"
           transform="translate(331.165,244.374)"><path
             d="m 0,0 c -0.932,-1.006 -1.908,-1.967 -2.973,-2.84 -4.895,-4.037 -12.023,-6.137 -17.658,-3.223 -2.735,1.419 -4.806,3.844 -6.728,6.27 -4.673,5.96 -8.859,12.319 -12.467,18.989 -2.958,5.471 -5.591,11.461 -5.117,17.658 0.074,1.005 0.236,2.041 0.769,2.913 0.133,0.237 0.311,0.459 0.502,0.666 0.902,0.458 1.938,0.724 2.914,0.443 0.68,-0.192 1.257,-0.621 1.804,-1.05 3.668,-2.898 6.699,-6.507 9.968,-9.849 3.875,-3.978 8.09,-7.631 12.615,-10.84 4.155,-2.958 8.637,-5.62 11.875,-9.569 C -2.588,7.231 -1.153,4.496 -0.355,1.582 -0.207,1.064 -0.089,0.532 0,0"
             style="fill:#5f7eb4;fill-opacity:1;fill-rule:nonzero;stroke:none"
             id="path190" /></g><g
           id="g192"
           transform="translate(297.8242,287.5996)"><path
             d="m 0,0 c 0.755,-0.494 1.494,-1.024 2.23,-1.511 3.136,-2.072 6.349,-3.311 9.882,-4.401 3.2,-0.985 6.702,-1.515 9.863,-0.411 1.872,0.654 3.509,1.842 5.027,3.118 3.237,2.723 6.059,5.908 8.698,9.215 1.065,1.335 2.113,2.711 2.779,4.284 0.16,0.38 0.299,0.784 0.271,1.195 -0.032,0.465 -0.275,0.888 -0.547,1.267 -1.449,2.018 -3.811,3.205 -6.209,3.856 -2.398,0.651 -4.895,0.839 -7.337,1.3 -2.71,0.511 -5.355,1.358 -8.091,1.706 -2.734,0.347 -5.658,0.148 -8.008,-1.293 C 5.225,16.281 2.737,12.258 0.359,9.199 -0.722,7.809 -1.782,6.402 -2.823,4.981 -3.34,4.274 -4.386,2.052 -5.375,1.992 -3.496,2.106 -1.517,0.993 0,0"
             style="fill:#769dd6;fill-opacity:1;fill-rule:nonzero;stroke:none"
             id="path194" /></g><g
           id="g196"
           transform="translate(329.2764,292.3096)"><path
             d="m 0,0 c 0.74,-0.773 1.64,-1.371 2.491,-2.019 1.43,-1.087 2.753,-2.337 4.341,-3.177 1.587,-0.84 3.55,-1.22 5.174,-0.454 0.905,0.426 1.674,1.256 1.788,2.25 0.109,0.942 -0.378,1.872 -1.053,2.538 -0.675,0.667 -1.523,1.121 -2.344,1.598 C 8.158,2.037 6.05,3.565 4.116,5.289 0.403,8.598 -3.054,3.188 0,0"
             style="fill:#314466;fill-opacity:1;fill-rule:nonzero;stroke:none"
             id="path198" /></g><g
           id="g200"
           transform="translate(288.4473,290.5967)"><path
             d="m 0,0 c 1.64,-4.084 3.463,-8.094 5.462,-12.015 0.668,-1.309 2.756,-3.766 1.871,-5.218 -0.783,-1.284 -4.197,-1.754 -5.525,-1.687 -0.188,0.01 -0.38,0.03 -0.545,0.118 -0.194,0.102 -0.328,0.286 -0.455,0.465 -10.189,14.334 -15.012,33.066 -9.572,50.138 2.658,8.34 7.475,16.37 6.97,25.109 -0.145,2.526 -0.744,4.993 -1.467,7.41 -0.302,1.008 -1.746,3.439 -0.865,4.34 0.79,0.808 6.219,1.603 7.13,0.958 C 4.046,68.881 3.892,64.554 3.99,63.276 4.618,55.101 3.458,46.5 1.194,38.616 -1.133,30.512 -5.187,23.252 -4.163,14.575 -3.59,9.718 -2.002,5.038 -0.196,0.492 -0.131,0.328 -0.065,0.164 0,0"
             style="fill:#698bc7;fill-opacity:1;fill-rule:nonzero;stroke:none"
             id="path202" /></g><g
           id="g204"
           transform="translate(259.4883,406.1211)"><path
             d="m 0,0 c -2.357,1.148 -5.271,0.609 -6.918,-1.489 -0.655,-0.835 0.517,-2.023 1.179,-1.179 1.164,1.483 3.162,2.074 4.898,1.229 C 0.12,-1.907 0.966,-0.47 0,0"
             style="fill:#0d0d0d;fill-opacity:1;fill-rule:nonzero;stroke:none"
             id="path206" /></g><g
           id="g208"
           transform="translate(272.749,405.52)"><path
             d="M 0,0 C 2.895,1.409 6.472,0.747 8.492,-1.829 9.297,-2.854 7.858,-4.312 7.045,-3.276 5.616,-1.455 3.164,-0.73 1.033,-1.768 -0.146,-2.342 -1.185,-0.578 0,0"
             style="fill:#0d0d0d;fill-opacity:1;fill-rule:nonzero;stroke:none"
             id="path210" /></g><g
           id="g212"
           transform="translate(161.5815,307.3091)"><path
             d="m 0,0 c -3.706,-2.338 -7.935,-3.754 -11.623,-6.121 -7.647,-4.908 -12.446,-14.309 -11.033,-23.285 0.406,-2.576 1.28,-5.054 2.264,-7.469 0.623,-1.527 1.302,-3.052 2.309,-4.357 1.763,-2.284 4.389,-3.719 7.001,-4.941 5.34,-2.495 10.968,-4.374 16.737,-5.585 5.321,-1.117 11.223,-1.573 15.864,1.261 3.471,2.12 5.687,5.754 7.69,9.293 4.093,7.229 7.938,14.912 8.492,23.201 0.269,4.038 -0.256,8.084 -0.824,12.091 -0.544,3.839 -1.18,7.813 -3.34,11.032 -2.694,4.012 -7.544,6.298 -12.373,6.478 C 16.966,11.755 12.133,10.485 8.678,8.03 7.196,6.977 6.269,5.368 4.999,4.059 3.5,2.515 1.82,1.148 0,0"
             style="fill:#5d7fa4;fill-opacity:1;fill-rule:nonzero;stroke:none"
             id="path214" /></g><g
           id="g216"
           transform="translate(210.7246,360.3311)"><path
             d="m 0,0 c 0.971,-3.606 1.933,-6.556 3.862,-9.864 1.721,-2.95 3.462,-5.929 5.812,-8.408 2.677,-2.824 6.039,-4.888 9.358,-6.918 -4.414,-4.124 -8.055,-9.001 -12.264,-13.335 -4.208,-4.334 -9.194,-8.223 -15.074,-9.607 -2.86,-0.674 -5.883,-0.743 -8.592,-1.88 -1.513,-0.634 -2.893,-1.747 -4.584,-1.744 -1.533,0.003 -3.107,0.38 -4.676,0.391 -4.393,0.03 -8.786,0.085 -13.176,0.227 -6.242,0.203 -12.586,0.604 -18.447,2.76 -6.979,2.567 -12.822,7.449 -18.51,12.239 -4.058,3.417 -8.261,7.029 -10.282,11.933 -1.65,4.005 -1.877,9.022 -1.563,13.308 0.025,0.339 0.06,0.695 0.248,0.98 0.305,0.461 0.907,0.599 1.447,0.713 3.626,0.767 7.198,0.64 10.784,1.916 3.592,1.278 6.939,3.22 9.902,5.611 5.444,4.394 9.608,10.202 12.9,16.375 1.952,3.662 3.634,7.495 6.078,10.848 4.741,6.506 12.162,10.797 20.017,12.558 7.855,1.759 16.116,1.123 23.904,-0.919 C -0.988,36.694 1.107,35.9 1.752,34.08 2.475,32.041 0.998,29.968 0.104,28 -1.708,24.006 -1.845,18.99 -1.953,14.693 -2.011,12.386 -2.499,9.524 -1.954,7.271 -1.365,4.834 -0.654,2.43 0,0"
             style="fill:#0d0d0d;fill-opacity:1;fill-rule:nonzero;stroke:none"
             id="path218" /></g><g
           id="g220"
           transform="translate(223.1294,374.8447)"><path
             d="m 0,0 c -0.588,-2.488 -2.335,-4.608 -4.483,-5.969 -2.148,-1.362 -4.67,-2.019 -7.187,-2.263 -2.998,-0.291 -6.19,0.034 -8.66,1.751 -1.208,0.841 -2.19,1.978 -3.016,3.202 -1.302,1.926 -2.272,4.271 -1.821,6.571 0.333,1.693 1.419,3.178 2.785,4.222 1.365,1.044 2.995,1.682 4.65,2.113 2.951,0.77 6.055,0.919 9.056,0.435 C -3.787,9.273 1.338,5.663 0,0"
             style="fill:#0d0d0d;fill-opacity:1;fill-rule:nonzero;stroke:none"
             id="path222" /></g><g
           id="g224"
           transform="translate(228.6948,362.3877)"><path
             d="m 0,0 c -1.577,3.001 -2.174,6.747 -2.254,9.907 -0.041,1.593 0.071,3.192 0.343,4.767 0.055,0.318 0.159,0.687 0.47,0.802 0.257,0.094 0.554,-0.042 0.72,-0.252 0.167,-0.209 0.234,-0.475 0.296,-0.733 0.293,-1.213 0.37,-2.458 0.476,-3.698 0.084,-0.981 0.012,-2.921 0.721,-3.67 -0.009,0.01 2.573,2.96 2.764,3.172 1.087,1.206 2.174,2.413 3.261,3.621 0.052,0.056 0.108,0.116 0.184,0.133 0.095,0.022 0.19,-0.03 0.265,-0.09 0.397,-0.315 0.523,-0.868 0.439,-1.36 C 7.602,12.106 7.341,11.659 7.073,11.231 6.078,9.642 4.817,8.311 3.842,6.732 6.697,6.823 9.417,7.885 12.21,8.478 12.52,8.081 12.472,7.499 12.212,7.066 11.655,6.138 10.238,5.758 9.264,5.423 7.889,4.951 6.63,4.47 5.38,3.686 7.519,2.839 10.076,2.762 12.361,2.858 12.875,2.88 13.581,2.754 13.581,2.256 13.582,1.955 13.291,1.736 13.021,1.583 12.16,1.098 11.213,0.8 10.23,0.67 9.782,0.611 8.732,0.751 8.89,0.224 9.032,-0.252 10.536,-0.771 10.958,-1 11.669,-1.386 12.38,-1.811 12.824,-2.493 13.77,-3.95 13.671,-6.83 11.792,-7.559 9.877,-8.302 7.858,-7.886 6.163,-6.86 4.37,-5.774 3.373,-4.187 1.963,-2.748 1.184,-1.952 0.535,-1.019 0,0"
             style="fill:#b76e49;fill-opacity:1;fill-rule:nonzero;stroke:none"
             id="path226" /></g><g
           id="g228"
           transform="translate(234.0034,327.7773)"><path
             d="m 0,0 c 0.777,2.566 1.431,5.177 2.113,7.768 0.665,2.522 1.091,5.1 1.274,7.693 0.18,2.545 0.825,6.042 -1.028,8.188 -0.669,0.775 -1.68,1.171 -2.598,1.651 -2.171,1.136 -3.988,2.892 -5.163,4.991 -0.978,1.747 -1.305,3.454 -1.832,5.334 -0.533,1.902 -1.407,3.714 -2.579,5.323 -0.182,0.248 -0.375,0.506 -0.413,0.809 -0.292,2.395 3.681,0.219 4.252,-0.637 1.342,-2.011 2.349,-4.123 4.072,-5.917 1.233,-1.284 2.728,-2.431 4.504,-2.792 C 4.423,32.042 6.34,31.573 7.537,30.021 9.094,28 8.572,24.919 8.871,22.589 9.205,19.99 9.351,17.366 9.358,14.746 9.373,9.558 8.816,4.373 7.873,-0.737 7.375,-3.439 6.76,-6.149 5.562,-8.641 c -1.198,-2.491 -3.03,-4.774 -5.504,-6.126 -1.198,1.396 -2.394,2.792 -3.592,4.188 -0.549,0.64 -0.964,1.443 -0.445,2.24 C -2.273,-5.726 -0.913,-3.015 0,0"
             style="fill:#c2805b;fill-opacity:1;fill-rule:nonzero;stroke:none"
             id="path230" /></g><g
           id="g232"
           transform="translate(229.541,310.9312)"><path
             d="m 0,0 c -0.112,-0.157 -0.336,-0.216 -0.528,-0.251 -0.657,-0.132 -1.32,-0.245 -1.99,-0.329 -2.069,-0.283 -4.164,-0.374 -6.259,-0.474 -3.611,-0.163 -8.298,0.249 -11.718,1.357 -1.736,0.566 -3.373,1.507 -4.507,2.89 0.811,-0.988 0.727,-3.129 1.174,-4.33 0.608,-1.701 1.504,-3.349 2.299,-4.977 1.652,-3.376 3.472,-6.677 5.497,-9.841 2.313,-3.612 4.898,-7.066 7.811,-10.218 3.876,-4.205 3.859,-10.72 -0.255,-14.701 -1.411,-1.376 -2.906,-2.667 -4.478,-3.874 -7.702,-5.929 -17.081,-9.696 -26.765,-10.514 -1.657,-0.141 -3.601,-0.07 -4.58,1.268 -0.463,0.647 -0.605,1.474 -0.701,2.277 -1.306,10.956 2.133,22.247 3.719,33.08 0.636,4.332 1.141,8.678 1.787,13.008 0.309,2.134 0.376,4.285 0.479,6.433 0.076,1.897 0.18,3.799 0.498,5.686 0.309,1.879 0.73,3.745 1.251,5.582 0.877,3.058 3.592,11.396 8.104,7.137 2.495,-2.34 4.718,-4.603 7.73,-6.38 5.329,-3.136 11.605,-4.823 17.873,-4.605 0.568,0.02 1.147,0.057 1.719,0.106 C -0.049,8.493 -0.027,1.493 0.071,0.539 0.097,0.356 0.111,0.147 0,0"
             style="fill:#729bc9;fill-opacity:1;fill-rule:nonzero;stroke:none"
             id="path234" /></g><g
           id="g236"
           transform="translate(226.0537,318.584)"><path
             d="M 0,0 C -0.146,0.744 -0.096,1.34 0.515,1.255 0.794,1.216 1.07,1.152 1.336,1.063 1.643,0.962 2.024,0.843 2.256,1.064 2.385,1.188 2.413,1.376 2.438,1.55 2.518,2.097 2.645,2.648 2.928,3.13 3.582,4.24 4.856,4.283 5.988,3.841 6.759,3.54 7.38,2.972 7.98,2.417 9.091,1.391 10.202,0.365 11.313,-0.66 12.158,-1.441 13.221,-2.114 12.848,-3.362 12.277,-5.271 9.89,-7.359 8.209,-8.273 6.736,-9.075 5.103,-9.654 3.419,-9.714 2.97,-9.73 2.506,-9.707 2.1,-9.525 0.873,-8.977 0.646,-7.47 0.872,-6.33 1.142,-4.974 1.062,-3.827 0.754,-2.452 0.679,-2.113 0.184,-0.938 0,0"
             style="fill:#bacfe2;fill-opacity:1;fill-rule:nonzero;stroke:none"
             id="path238" /></g><g
           id="g240"
           transform="translate(216.5874,266.1836)"><path
             d="m 0,0 c -7.703,-5.929 -17.082,-9.696 -26.765,-10.515 -1.657,-0.14 -3.601,-0.069 -4.58,1.268 -0.464,0.647 -0.605,1.475 -0.702,2.277 -1.305,10.956 2.134,22.248 3.72,33.081 0.636,4.331 1.141,8.677 1.786,13.008 0.31,2.133 0.376,4.285 0.48,6.433 2.408,-2.529 2.999,-7.594 4.31,-10.243 2.981,-6.017 7.752,-11.06 13.322,-14.808 C -2.58,16.562 1.604,12.396 0.979,4.773 0.85,3.147 0.506,1.545 0,0"
             style="fill:#5d7fa4;fill-opacity:1;fill-rule:nonzero;stroke:none"
             id="path242" /></g><g
           id="g244"
           transform="translate(217.0093,264.3706)"><path
             d="m 0,0 c 3.679,-6.897 4.368,-15.128 8.332,-21.865 1.634,-2.777 3.892,-5.898 2.701,-8.892 -0.41,-1.034 -1.196,-1.87 -2.017,-2.62 -6.739,-6.154 -16.443,-7.743 -25.566,-7.99 -2.864,-0.078 -5.802,-0.039 -8.485,0.968 -2.682,1.006 -5.096,3.161 -5.667,5.969 -0.353,1.733 0.013,3.522 0.377,5.253 l 3.519,16.684 c 1.198,5.681 2.331,18.199 9.996,18.932 2.567,0.246 5.262,-1.207 7.691,-1.827 C -5.297,3.637 -2.077,3.893 0,0"
             style="fill:#3e3d4f;fill-opacity:1;fill-rule:nonzero;stroke:none"
             id="path246" /></g><g
           id="g248"
           transform="translate(214.3188,239.1465)"><path
             d="M 0,0 C 1.706,-0.995 3.576,-1.752 5.067,-3.046 6.559,-4.341 7.629,-6.39 7.06,-8.281 6.885,-8.858 6.57,-9.386 6.196,-9.858 c -1.229,-1.555 -3.069,-2.534 -4.977,-3.069 -1.907,-0.535 -3.902,-0.664 -5.88,-0.791 -2.327,-0.148 -4.655,-0.297 -6.982,-0.446 -1.783,-0.113 -3.585,-0.227 -5.347,0.063 -1.763,0.291 -3.51,1.025 -4.696,2.361 -1.909,2.15 -1.999,5.362 -1.505,8.195 0.566,3.245 1.751,6.353 3.114,9.353 1.327,2.92 2.829,5.759 4.497,8.499 0.71,1.166 1.464,2.33 2.487,3.233 0.491,0.434 1.088,0.818 1.743,0.804 1.219,-0.025 2.211,-0.47 2.445,-1.65 0.677,-3.423 0.614,-6.801 2.311,-9.951 C -5.085,3.944 -2.741,1.6 0,0"
             style="fill:#343343;fill-opacity:1;fill-rule:nonzero;stroke:none"
             id="path250" /></g><g
           id="g252"
           transform="translate(190.1489,100.252)"><path
             d="m 0,0 c -0.302,-0.993 -8.445,5.161 -8.445,5.161 0,0 2.475,11.684 -0.357,13.554 -1.273,0.834 -1.703,1.854 -0.68,3.048 0.337,0.395 0.871,0.608 1.25,0.961 0.042,0.033 0.075,0.076 0.099,0.121 0.107,0.11 0.179,0.243 0.232,0.379 2.057,4.47 3.367,9.262 3.823,14.161 1.406,-0.906 2.962,-1.565 4.579,-1.938 C 0.682,34.89 0.416,33.873 0.388,33.301 0.293,31.643 0.207,29.983 0.112,28.325 -0.071,24.904 0.013,21.339 -0.479,17.944 -0.622,16.941 -0.783,15.941 -0.944,14.941 -1.228,13.116 -1.521,11.292 -1.741,9.45 -1.933,7.766 -2.087,6 -1.674,4.331 -1.483,3.526 -1.104,2.805 -0.755,2.058 -0.512,1.549 0.181,0.593 0,0"
             style="fill:#c2805b;fill-opacity:1;fill-rule:nonzero;stroke:none"
             id="path254" /></g><g
           id="g256"
           transform="translate(189.6699,118.1963)"><path
             d="m 0,0 c -0.143,-1.003 -0.304,-2.003 -0.465,-3.003 -0.07,-0.029 -0.138,-0.05 -0.205,-0.061 -0.549,-0.098 -0.76,0.53 -1.236,1.235 -0.938,1.37 -1.703,3.09 -2.89,4.253 -0.9,0.876 -1.895,1.659 -2.858,2.476 0.107,0.111 0.179,0.244 0.232,0.379 2.057,4.471 3.367,9.263 3.823,14.161 1.406,-0.905 2.962,-1.564 4.579,-1.937 C 1.161,16.945 0.895,15.929 0.867,15.356 0.772,13.698 0.686,12.039 0.591,10.381 0.408,6.96 0.492,3.395 0,0"
             style="fill:#a86e51;fill-opacity:1;fill-rule:nonzero;stroke:none"
             id="path258" /></g><g
           id="g260"
           transform="translate(178.0981,117.9941)"><path
             d="m 0,0 c 0.042,1.354 0.488,4.687 3.822,5.012 0,0 3.082,-2.66 2.205,-10.842 -0.878,-8.181 3.097,-8.802 4.986,-9.518 0,0 2.15,-2.44 1.254,-3.422 0,0 -2.789,-0.517 -9.206,5.8 -0.477,0.469 -0.687,1.15 -0.537,1.801 0.584,2.533 1.847,9.005 -0.265,9.903 -0.243,0.105 -0.53,-0.012 -0.668,-0.238 l -4.282,-6.966 -1.632,1.019 3.994,6.354 C -0.122,-0.768 -0.012,-0.389 0,0"
             style="fill:#111f37;fill-opacity:1;fill-rule:nonzero;stroke:none"
             id="path262" /></g><g
           id="g264"
           transform="translate(201.0762,192.5889)"><path
             d="m 0,0 c -2.339,-17.187 -5.697,-35.693 -7.42,-56.082 -0.23,-2.671 -1.059,-5.302 -1.365,-7.992 -0.074,-0.642 -0.129,-1.286 -0.031,-1.92 0.116,-0.721 0.428,-1.454 0.181,-2.133 -0.17,-0.499 -0.619,-0.882 -0.716,-1.399 -0.138,-0.795 0.374,-2.089 0.284,-3.125 -0.027,-0.488 -0.191,-0.931 -0.621,-1.231 -0.287,-0.203 -0.668,-0.235 -1.024,-0.213 -1.524,0.117 -2.797,1.187 -3.807,2.339 -1.01,1.144 -1.889,2.451 -3.148,3.32 -0.418,0.293 -0.899,0.546 -1.189,0.976 -0.292,0.42 -0.309,1.101 0.119,1.382 -0.418,0.378 -0.748,0.962 -0.547,1.486 0.096,0.253 0.297,0.447 0.47,0.645 0.944,1.08 1.258,2.591 1.195,4.022 -0.064,1.421 -0.481,2.808 -0.852,4.19 -2.172,8.15 -2.987,16.627 -1.834,24.991 0.63,4.52 1.702,8.963 2.993,13.332 1.175,4.016 2.862,7.803 3.059,12.005 0.121,2.381 -0.133,4.701 -0.411,6.977 -2.562,20.841 -7.5,39.623 -5.217,57.393 0.389,2.993 0.994,5.978 2.319,8.59 2.942,5.775 9.13,7.2 14.437,6.434 0.631,-0.091 1.255,-0.237 1.865,-0.43 C 0.55,72.973 2.231,71.923 3.511,70.41 6.98,66.355 5.328,62.121 5.003,57.047 4.927,55.971 4.861,54.895 4.794,53.808 4.484,49.194 4.189,44.466 3.854,39.629 2.993,27.213 1.899,13.994 0,0"
             style="fill:#425e6e;fill-opacity:1;fill-rule:nonzero;stroke:none"
             id="path266" /></g><g
           id="g268"
           transform="translate(192.0093,119.9375)"><path
             d="m 0,0 c -0.027,-0.487 -0.191,-0.931 -0.621,-1.23 -0.287,-0.204 -0.668,-0.236 -1.024,-0.213 -1.524,0.117 -2.797,1.186 -3.807,2.339 -1.01,1.143 -1.889,2.451 -3.148,3.32 -0.419,0.293 -0.899,0.546 -1.19,0.975 -0.291,0.42 -0.308,1.101 0.12,1.382 -0.418,0.378 -0.748,0.962 -0.547,1.487 0.095,0.253 0.297,0.447 0.47,0.644 0.944,1.08 1.258,2.591 1.195,4.023 -0.064,1.42 -0.481,2.807 -0.852,4.189 -2.172,8.15 -2.987,16.627 -1.834,24.991 0.63,4.521 1.702,8.963 2.993,13.332 1.175,4.016 2.862,7.803 3.058,12.005 0.122,2.381 -0.132,4.701 -0.41,6.978 -2.562,20.841 -7.5,39.623 -5.217,57.393 0.389,2.992 0.994,5.978 2.319,8.59 2.942,5.774 9.13,7.199 14.437,6.433 0.631,-0.091 1.255,-0.237 1.865,-0.43 1.81,-0.583 3.491,-1.633 4.771,-3.147 3.469,-4.055 1.817,-8.289 1.492,-13.363 -0.076,-1.076 -0.142,-2.152 -0.209,-3.239 -1.548,-0.502 -3.042,-1.114 -4.292,-2.32 C 3.344,118.136 -2.233,110.623 -3.776,101.935 -5.504,92.206 -2.188,82.103 0.226,72.808 0.505,71.732 0.777,70.621 0.618,69.521 0.468,68.479 -0.057,67.534 -0.542,66.599 -5.827,56.396 -6.621,44.283 -7.556,33.019 -7.958,28.18 -8.145,22.986 -5.599,18.858 -4.627,17.285 -3.232,15.467 -4.036,13.795 -4.491,12.866 -5.572,12.235 -5.642,11.206 -5.72,10.026 -4.389,8.969 -4.771,7.853 -4.98,7.255 -5.622,6.922 -5.938,6.383 -6.776,4.988 -5.23,3.416 -3.87,2.525 -2.579,1.69 -1.29,0.845 0,0"
             style="fill:#38455f;fill-opacity:1;fill-rule:nonzero;stroke:none"
             id="path270" /></g><g
           id="g272"
           transform="translate(87.4702,187.6797)"><path
             d="m 0,0 c 0,0 11.917,0.733 12.966,3.972 1.04,3.24 3.154,1.321 4.475,0.138 C 17.549,4.011 17.907,3.893 18.49,3.744 18.307,3.061 18.089,2.081 17.451,1.191 16.51,-0.114 15.19,-2.905 14.8,-4.449 10.888,-4.821 3.564,-5.489 2.474,-5.437 0.99,-5.366 -1.679,-9.542 -2.718,-9.519 -3.756,-9.494 0,0 0,0"
             style="fill:#c2805b;fill-opacity:1;fill-rule:nonzero;stroke:none"
             id="path274" /></g><g
           id="g276"
           transform="translate(98.0801,182.8555)"><path
             d="M 0,0 C 0.493,0.686 1.064,1.333 1.56,1.915 3.26,3.933 5.185,5.778 6.582,8.039 6.734,8.292 6.875,8.57 6.998,8.854 7.176,8.78 7.479,8.682 7.887,8.587 7.694,7.906 7.482,6.915 6.841,6.016 5.9,4.71 4.58,1.919 4.19,0.375 3.011,0.265 1.529,0.14 0,0"
             style="fill:#a86e51;fill-opacity:1;fill-rule:nonzero;stroke:none"
             id="path278" /></g><g
           id="g280"
           transform="translate(98.6284,194.5176)"><path
             d="m 0,0 c 1.315,0.321 4.647,0.783 5.851,-2.342 0,0 -1.739,-3.682 -9.857,-5.024 -8.118,-1.342 -7.654,-5.338 -7.839,-7.35 0,0 -1.776,-2.723 -2.962,-2.123 0,0 -1.243,2.549 3.127,10.422 0.325,0.585 0.924,0.969 1.593,0.998 2.597,0.115 9.17,0.629 9.472,2.903 0.035,0.263 -0.155,0.508 -0.409,0.581 l -7.857,2.264 0.546,1.845 7.19,-2.151 C -0.772,-0.088 -0.378,-0.093 0,0"
             style="fill:#111f37;fill-opacity:1;fill-rule:nonzero;stroke:none"
             id="path282" /></g><g
           id="g284"
           transform="translate(172.9033,199.9766)"><path
             d="m 0,0 c -1.004,-2.418 -2.112,-5.385 -4.516,-6.73 -2.302,-1.284 -4.876,-1.507 -7.444,-1.831 -2.881,-0.363 -5.768,-0.713 -8.644,-1.088 -5.99,-0.754 -11.981,-1.539 -17.956,-2.417 -5.714,-0.842 -11.417,-1.767 -17.087,-2.824 -2.646,-0.485 -5.393,-0.438 -8.067,-0.864 -0.63,-0.096 -1.278,-0.214 -1.864,-0.465 -0.656,-0.284 -1.296,-0.743 -2.009,-0.71 -0.528,0.028 -1.008,0.326 -1.534,0.274 -0.813,-0.08 -1.433,-0.964 -2.231,-0.831 -0.112,0.02 -0.21,0.054 -0.304,0.097 -0.287,0.171 -0.48,0.498 -0.527,0.813 -0.058,0.428 0.075,0.858 0.209,1.267 0.398,1.181 0.84,2.347 1.282,3.512 0.43,1.16 0.868,2.317 1.307,3.474 0.112,0.288 0.266,0.611 0.582,0.688 0.413,0.103 0.782,-0.286 1.203,-0.276 0.496,0.023 0.808,0.569 1.298,0.635 0.303,0.042 0.588,-0.109 0.889,-0.156 0.37,-0.051 0.757,0.06 1.118,0.181 1.776,0.555 3.42,0.709 5.113,1.591 1.622,0.848 3.081,1.912 4.627,2.856 2.709,1.676 5.655,2.98 8.597,4.275 5.431,2.403 11.075,4.819 17.041,5.026 4.119,0.153 8.147,-0.764 12.098,-1.733 1.058,-0.265 2.298,-0.584 3.547,-0.787 0.496,2.021 0.746,4.048 0.954,6.043 2.179,20.893 1.579,40.304 7.794,57.098 1.041,2.831 2.309,5.603 4.187,7.851 4.161,4.968 10.503,4.972 15.502,3.035 0.604,-0.233 1.182,-0.507 1.731,-0.84 1.624,-0.972 3.026,-2.372 3.946,-4.128 2.237,-4.299 0.336,-7.79 -1.128,-12.043 C 19.574,60.566 19.429,60.13 19.291,59.682 17.667,54.273 16.014,48.697 14.271,42.953 10.569,30.796 6.464,18.763 2.448,6.727 1.687,4.462 0.905,2.194 0,0"
             style="fill:#425e6e;fill-opacity:1;fill-rule:nonzero;stroke:none"
             id="path286" /></g><g
           id="g288"
           transform="translate(192.6216,260.9683)"><path
             d="m 0,0 c -2.83,0.684 -5.641,1.574 -8.367,1.574 -1.162,0.009 -2.314,-0.14 -3.447,-0.543 -6.109,-2.165 -8.621,-12.939 -10.344,-18.42 -2.614,-8.245 -4.292,-16.799 -4.985,-25.428 -0.534,-6.558 -1.714,-13.005 -2.07,-19.61 -0.103,-1.874 -0.132,-3.879 0.89,-5.453 0.243,-0.374 0.534,-0.712 0.852,-1.031 -1.377,-0.318 -2.792,-0.468 -4.206,-0.646 -2.886,-0.357 -5.772,-0.712 -8.648,-1.087 -5.988,-0.75 -11.974,-1.536 -17.952,-2.417 -5.715,-0.834 -11.421,-1.762 -17.089,-2.82 -2.642,-0.488 -5.387,-0.441 -8.067,-0.863 -0.628,-0.093 -1.275,-0.214 -1.864,-0.467 -0.657,-0.282 -1.294,-0.741 -2.006,-0.713 -0.533,0.028 -1.011,0.328 -1.536,0.281 -0.815,-0.084 -1.433,-0.965 -2.23,-0.834 -0.113,0.019 -0.206,0.057 -0.309,0.094 -0.281,0.178 -0.478,0.497 -0.525,0.815 -0.056,0.431 0.075,0.862 0.215,1.265 0.394,1.18 0.834,2.351 1.275,3.513 0.431,1.163 0.871,2.315 1.311,3.476 0.113,0.291 0.263,0.609 0.581,0.685 0.413,0.102 0.778,-0.282 1.2,-0.272 0.496,0.019 0.815,0.571 1.302,0.637 0.3,0.037 0.59,-0.112 0.89,-0.159 0.365,-0.047 0.759,0.055 1.115,0.177 1.78,0.563 3.42,0.712 5.116,1.593 1.621,0.853 3.082,1.911 4.628,2.858 2.707,1.677 5.649,2.979 8.592,4.272 5.434,2.408 11.074,4.825 17.042,5.031 2.202,0.085 4.366,-0.14 6.512,-0.514 1.799,-0.581 3.719,-0.769 5.584,-1.219 1.059,-0.272 2.295,-0.59 3.551,-0.787 0.496,2.014 0.749,4.048 0.955,6.044 2.174,20.892 1.575,40.297 7.796,57.095 1.04,2.83 2.304,5.603 4.178,7.852 4.17,4.965 10.503,4.975 15.506,3.036 0.6,-0.235 1.181,-0.506 1.734,-0.844 1.621,-0.974 3.026,-2.37 3.944,-4.122 C 3.363,7.749 1.461,4.253 0,0"
             style="fill:#38455f;fill-opacity:1;fill-rule:nonzero;stroke:none"
             id="path290" /></g><g
           id="g292"
           transform="translate(210.1567,249.0811)"><path
             d="m 0,0 c 2.542,0.505 5.085,1.01 7.627,1.516 -4.349,8.665 -8.814,17.873 -8.118,27.544 0.471,6.532 3.269,12.628 5.448,18.804 0.775,2.196 1.482,4.464 1.47,6.792 -0.009,1.83 -0.464,3.628 -0.988,5.381 -2.773,9.284 -8.065,18.415 -16.702,22.807 -0.316,0.789 -2.621,0.497 -2.848,-0.322 -0.227,-0.819 0.245,-1.653 0.702,-2.369 1.318,-2.06 2.676,-4.095 4.075,-6.101 C -4.777,67.515 0.414,60.716 0.712,52.753 1.087,42.762 -6.401,33.874 -6.633,23.878 -6.824,15.662 -2.121,8.215 -0.05,0.261 0.383,0.308 -0.428,-0.085 0,0"
             style="fill:#3e3d4f;fill-opacity:1;fill-rule:nonzero;stroke:none"
             id="path294" /></g><g
           id="g296"
           transform="translate(199.5732,250.1631)"><path
             d="m 0,0 c 0.425,0.206 0.845,0.425 1.258,0.659 2.138,1.208 4.059,2.759 5.97,4.302 2.463,1.99 3.401,3.232 2.653,6.107 C 8.986,14.513 7.515,17.909 6.334,21.267 3.681,28.808 1.37,39.639 5.473,47.2 c 0.899,1.657 2.165,3.059 3.346,4.511 1.508,1.854 2.894,3.817 4.146,5.868 0.775,1.268 1.525,2.703 1.326,4.184 -0.153,1.139 -0.845,2.102 -1.514,3.01 -3.459,4.694 -6.675,9.914 -10.918,13.888 -1.411,1.322 -3.18,1.969 -5.008,2.326 -3.274,0.638 -6.809,1.175 -9.961,0.086 -2.312,-0.798 -4.595,-1.696 -6.845,-2.69 -0.36,-0.159 -0.73,-0.329 -0.998,-0.65 -2.892,-3.473 -0.99,-13.219 -0.722,-17.253 0.044,-0.662 0.095,-1.317 0.152,-1.969 0.819,-9.435 3.136,-18.016 -3.362,-26.002 -2.563,-3.149 -5.644,-5.86 -8.086,-9.104 -3.002,-3.988 -4.974,-8.746 -5.675,-13.689 C -33.133,4.967 -26.912,0.848 -19.92,-1.169 -13.385,-3.054 -6.097,-2.947 0,0"
             style="fill:#e3c2c0;fill-opacity:1;fill-rule:nonzero;stroke:none"
             id="path298" /></g><g
           id="g300"
           transform="translate(209.5981,304.4189)"><path
             d="m 0,0 c -1.203,-3.682 -4.938,-5.924 -8.592,-7.195 -3.663,-1.28 -7.598,-1.962 -10.855,-4.061 -3.258,-2.098 -5.667,-6.275 -4.189,-9.848 0.629,-1.514 1.906,-2.886 1.748,-4.509 -1.527,-0.901 -3.402,0.266 -5.168,0.411 -2.251,0.191 -4.262,-1.324 -5.884,-2.893 -1.909,-1.847 -3.694,-4.02 -4.246,-6.625 -0.915,-4.3 1.736,-8.591 4.978,-11.573 5.062,-4.652 11.623,-7.315 18.178,-9.45 -5.14,-1.412 -10.761,-1.167 -15.919,0.318 -6.984,2.014 -13.209,6.138 -18.721,10.888 0.696,4.937 2.673,9.7 5.674,13.686 2.445,3.248 5.526,5.952 8.083,9.101 6.504,7.99 4.184,16.573 3.364,26.002 -0.056,0.657 -0.104,1.313 -0.152,1.969 -0.265,4.038 -2.171,13.78 0.725,17.259 0.263,0.319 0.64,0.484 0.998,0.65 1.729,0.765 3.488,1.47 5.259,2.116 0.487,-0.282 0.965,-0.638 1.424,-1.078 2.533,-2.42 3.316,-7.045 3.303,-10.382 -0.018,-4.043 -1.217,-8.018 -2.945,-11.678 -0.783,-1.654 -1.644,-3.735 -0.506,-5.175 0.872,-1.118 2.578,-1.2 3.899,-0.7 1.321,0.5 2.411,1.46 3.626,2.189 4.292,2.575 9.572,2.151 14.422,2.512 0.466,0.032 0.987,0.048 1.328,-0.265 C 0.268,1.271 0.187,0.563 0,0"
             style="fill:#d8b3b2;fill-opacity:1;fill-rule:nonzero;stroke:none"
             id="path302" /></g><g
           id="g304"
           transform="translate(190.7881,332.3452)"><path
             d="m 0,0 c -0.074,-0.038 -0.69,-0.21 -1.465,-0.42 -1.842,-0.497 -2.761,-2.571 -1.878,-4.262 3.048,-5.834 9.398,-16.139 10.7,-3.569 0,0 7.938,-4.041 6.532,-0.397 -1.407,3.644 -8.749,8.231 -8.749,8.231 z"
             style="fill:#ffe7e6;fill-opacity:1;fill-rule:nonzero;stroke:none"
             id="path306" /></g><g
           id="g308"
           transform="translate(199.6504,345.5371)"><path
             d="M 0,0 C -0.267,-2.229 -0.648,-4.439 -1.079,-6.63 -1.147,-7.009 -1.216,-7.387 -1.292,-7.771 -1.329,-7.973 -1.367,-8.2 -1.417,-8.407 l -0.002,-0.026 c -0.296,-1.517 -0.586,-3.042 -0.856,-4.563 -0.048,-0.252 -0.097,-0.51 -0.133,-0.764 -0.141,-0.791 -0.375,-1.607 -0.025,-2.373 0.285,-0.622 0.86,-1.086 1.261,-1.629 0.55,-0.747 0.804,-1.706 0.694,-2.627 -0.023,-0.198 -0.065,-0.401 -0.174,-0.569 -0.184,-0.281 -0.524,-0.417 -0.853,-0.485 -1.12,-0.23 -2.274,0.144 -3.31,0.627 -1.916,0.892 -3.645,2.179 -5.059,3.749 -0.654,0.727 -1.468,1.469 -1.365,2.469 0.065,0.642 0.146,1.283 0.219,1.924 0.056,0.541 0.111,1.082 0.166,1.623 0.078,0.738 0.155,1.469 0.239,2.2 0.089,0.782 0.177,1.557 0.284,2.324 10e-4,0.18 0.022,0.358 0.061,0.534 l 0.051,0.445 c 0.227,1.873 0.454,3.753 0.706,5.623 0.046,0.284 0.1,0.594 0.289,0.836 0.629,0.772 4.709,-0.312 5.679,-0.442 C -2.359,0.308 -1.186,0.161 0,0"
             style="fill:#c2805b;fill-opacity:1;fill-rule:nonzero;stroke:none"
             id="path310" /></g><g
           id="g312"
           transform="translate(199.6504,345.5371)"><path
             d="M 0,0 C -0.267,-2.229 -0.648,-4.439 -1.079,-6.63 -1.147,-7.009 -1.216,-7.387 -1.292,-7.771 -1.329,-7.973 -1.367,-8.2 -1.417,-8.407 l -0.002,-0.026 c -0.296,-1.517 -0.586,-3.042 -0.856,-4.563 -0.048,-0.252 -0.097,-0.51 -0.133,-0.764 -0.927,0.164 -1.832,0.358 -2.727,0.582 -1.885,0.466 -3.732,1.089 -5.586,2.054 -0.042,0.024 -0.091,0.049 -0.133,0.073 0.078,0.738 0.155,1.469 0.239,2.2 0.089,0.782 0.177,1.557 0.284,2.324 10e-4,0.18 0.022,0.358 0.061,0.534 l 0.051,0.445 c 0.227,1.873 0.454,3.753 0.706,5.623 0.046,0.284 0.1,0.594 0.289,0.836 0.629,0.772 4.709,-0.312 5.679,-0.442 C -2.359,0.308 -1.186,0.161 0,0"
             style="fill:#a86e51;fill-opacity:1;fill-rule:nonzero;stroke:none"
             id="path314" /></g><g
           id="g316"
           transform="translate(214.2881,344.8833)"><path
             d="m 0,0 c -1.075,-2.395 -2.548,-4.581 -4.196,-6.61 -1.499,-1.845 -2.951,-3.759 -5.355,-4.404 -0.239,-0.066 -0.49,-0.111 -0.764,-0.149 -1.48,-0.209 -2.982,0.026 -4.455,0.263 -1.637,0.251 -3.184,0.531 -4.708,0.916 -1.889,0.466 -3.74,1.091 -5.586,2.054 -0.938,0.49 -1.853,1.047 -2.731,1.663 -0.333,0.23 -0.668,0.475 -0.975,0.726 -0.698,0.513 -1.338,1.062 -1.949,1.658 -2.723,2.588 -4.802,5.819 -5.631,9.459 -0.148,0.641 -0.254,1.302 -0.321,1.968 -0.936,0.328 -1.77,0.945 -2.448,1.686 -2.33,2.503 -3.07,6.353 -1.877,9.531 0.417,1.063 1.092,2.112 2.163,2.491 0.558,0.187 1.13,0.166 1.709,0.026 -0.031,1.493 -0.055,2.967 -0.07,4.468 -0.003,2.861 -0.537,6.625 1.045,9.197 0.119,0.134 0.193,0.268 0.291,0.394 1.282,1.757 3.371,2.182 5.401,2.481 2.403,0.375 4.743,1.106 7.188,1.422 5.435,0.668 10.966,0.754 16.425,0.121 3.093,-0.382 5.667,-1.734 7.847,-3.954 1.714,-1.74 2.396,-4.162 2.432,-6.654 C 3.458,27.452 3.308,26.132 3.037,24.88 2.386,21.847 1.042,18.952 0.712,15.883 0.439,13.323 1.579,11.034 1.715,8.521 1.878,5.597 1.194,2.662 0,0"
             style="fill:#c2805b;fill-opacity:1;fill-rule:nonzero;stroke:none"
             id="path318" /></g><g
           id="g320"
           transform="translate(217.7227,373.6362)"><path
             d="m 0,0 c -0.553,0.24 -1.106,0.471 -1.68,0.659 -5.375,1.754 -11.153,-0.32 -16.787,-0.793 -4.592,-0.385 -9.274,0.326 -13.546,2.058 -0.173,-5.138 -0.511,-10.336 -2.058,-15.237 -1.062,-3.36 -2.728,-6.582 -5.107,-9.201 -0.192,-0.215 -0.394,-0.437 -0.607,-0.663 -0.148,0.641 -0.254,1.302 -0.32,1.969 -0.937,0.327 -1.771,0.944 -2.448,1.685 -2.33,2.503 -3.071,6.353 -1.877,9.531 0.416,1.063 1.092,2.112 2.162,2.492 0.558,0.187 1.131,0.166 1.709,0.025 -0.03,1.494 -0.054,2.967 -0.069,4.468 -0.003,2.861 -0.538,6.625 1.045,9.197 0.118,0.134 0.192,0.268 0.29,0.394 1.282,1.757 3.371,2.182 5.401,2.481 2.403,0.375 4.743,1.106 7.188,1.422 5.435,0.668 10.967,0.754 16.425,0.121 3.093,-0.382 5.668,-1.733 7.848,-3.954 C -0.717,4.915 -0.035,2.492 0,0"
             style="fill:#a86e51;fill-opacity:1;fill-rule:nonzero;stroke:none"
             id="path322" /></g><g
           id="g324"
           transform="translate(214.1079,378.6479)"><path
             d="m 0,0 c -2.249,0.165 -4.546,-0.023 -6.78,-0.367 -3.842,-0.591 -7.611,-1.625 -11.472,-2.063 -2.396,-0.272 -4.899,-0.298 -7.132,0.614 -2.065,0.843 -3.789,2.487 -4.73,4.509 0.853,-7.965 0.718,-16.32 -2.662,-23.584 -0.912,-1.96 -2.007,-3.741 -3.787,-4.974 -0.67,-0.464 -1.524,-0.571 -2.34,-0.562 -0.765,0.009 -1.545,0.113 -2.232,0.45 -1.17,0.573 -1.189,1.237 -1.376,2.333 -0.233,1.372 -0.992,2.746 -1.424,4.071 -0.612,1.877 -1.065,3.855 -1.015,5.841 0.049,1.918 0.533,3.655 0.557,5.591 0.038,3.108 0.587,6.252 1.851,9.104 3.688,8.322 12.13,12.548 20.504,14.95 5.368,1.539 11.059,2.371 16.633,1.689 C -1.107,17.075 5.72,15.44 7.984,11.285 9.337,8.802 10.342,6.179 10.322,3.314 10.313,2.048 9.911,0.896 9.798,-0.355 9.722,-1.195 9.616,-2.019 9.406,-2.838 9.261,-3.404 8.621,-4.43 8.658,-4.973 8.523,-3 6.598,-1.648 4.739,-0.973 3.211,-0.418 1.618,-0.118 0,0"
             style="fill:#0d0d0d;fill-opacity:1;fill-rule:nonzero;stroke:none"
             id="path326" /></g><g
           id="g328"
           transform="translate(205.7456,341.5815)"><path
             d="m 0,0 c 0.048,-0.713 0.291,-1.476 -0.042,-2.108 -0.326,-0.621 -1.125,-0.87 -1.816,-0.76 -0.693,0.11 -1.304,0.503 -1.882,0.899 -0.536,0.365 -1.064,0.741 -1.586,1.128 C -6.709,0.183 -8.107,1.37 -8.635,3.008 -6.984,2.134 -5.028,1.849 -3.195,2.215 -2.406,2.373 -0.5,3.31 0.248,2.879 0.782,2.572 0.46,2.129 0.291,1.703 0.075,1.159 -0.04,0.588 0,0"
             style="fill:#ffffff;fill-opacity:1;fill-rule:nonzero;stroke:none"
             id="path330" /></g><g
           id="g332"
           transform="translate(199.7036,342.0464)"><path
             d="M 0,0 C 0.701,-0.674 1.426,-1.364 2.329,-1.727 3.231,-2.089 4.365,-2.051 5.064,-1.375 5.878,-0.589 5.84,0.716 6.342,1.731 6.259,0.675 6.598,-0.362 6.739,-1.412 6.879,-2.461 6.768,-3.655 5.986,-4.369 5.035,-5.238 3.501,-5.021 2.366,-4.414 1.079,-3.725 0.043,-2.627 -0.74,-1.395 -1.544,-0.127 -2.285,1.097 -2.632,2.557 -1.634,2.073 -0.804,0.773 0,0"
             style="fill:#9c2f2d;fill-opacity:1;fill-rule:nonzero;stroke:none"
             id="path334" /></g><g
           id="g336"
           transform="translate(205.9473,343.0112)"><path
             d="M 0,0 C 0,0 -0.003,-0.013 -0.017,-0.01 -0.435,-0.141 -0.893,-0.205 -1.343,-0.242 -4.134,-0.529 -7.167,0.043 -9.271,1.878 -7.913,1.42 -6.438,1.031 -4.908,1.495 -2.963,2.076 -0.944,4.017 1.06,3.53 1.352,3.454 1.627,3.31 1.747,3.065 2.173,2.199 0.768,0.594 0,0"
             style="fill:#842422;fill-opacity:1;fill-rule:nonzero;stroke:none"
             id="path338" /></g><g
           id="g340"
           transform="translate(195.6099,368.856)"><path
             d="m 0,0 c -2.542,2.727 -8.999,0.334 -10.557,-2.526 -0.281,-0.516 0.38,-1.007 0.846,-0.817 1.56,0.636 2.749,1.92 4.384,2.504 1.721,0.614 3.414,0.469 5.202,0.517 C 0.022,-0.318 0.096,-0.103 0,0"
             style="fill:#1c1c1c;fill-opacity:1;fill-rule:nonzero;stroke:none"
             id="path342" /></g><g
           id="g344"
           transform="translate(215.9351,364.6245)"><path
             d="M 0,0 C -0.885,2.812 -5.019,5.043 -6.827,2.267 -6.895,2.163 -6.857,1.95 -6.76,1.949 -5.586,1.943 -4.463,2.128 -3.361,1.557 -2.313,1.013 -1.593,-0.237 -0.596,-0.834 -0.299,-1.012 0.16,-0.508 0,0"
             style="fill:#1c1c1c;fill-opacity:1;fill-rule:nonzero;stroke:none"
             id="path346" /></g><g
           id="g348"
           transform="translate(211.5186,360.8359)"><path
             d="m 0,0 c 0.815,-0.105 1.693,-0.737 2.242,-1.642 0.205,0.005 0.411,0.013 0.618,0.061 0.546,0.127 1.102,0.399 1.597,0.759 0.112,0.081 0.23,-0.121 0.144,-0.251 C 4.148,-1.754 3.398,-2.385 2.655,-2.597 2.842,-3.271 2.845,-4.023 2.554,-4.791 2.378,-5.256 1.926,-5.397 1.687,-4.995 1.022,-3.876 0.773,-2.43 -0.447,-2.174 -1.83,-1.884 -3.094,-3.406 -3.989,-4.751 -4.142,-4.981 -4.42,-4.805 -4.328,-4.502 -3.581,-2.052 -2.106,0.272 0,0"
             style="fill:#241729;fill-opacity:1;fill-rule:nonzero;stroke:none"
             id="path350" /></g><g
           id="g352"
           transform="translate(207.9209,352.3682)"><path
             d="m 0,0 c -0.142,0.68 -0.596,1.227 -1.105,1.674 -0.746,0.654 -1.708,0.911 -2.333,1.74 -1.266,1.678 -0.485,3.78 0.893,5.113 0.142,0.137 0.015,0.397 -0.186,0.308 C -4.944,7.864 -5.984,5.531 -5.665,3.171 -5.6,2.691 -5.458,2.221 -5.429,1.737 -5.401,1.282 -5.478,0.82 -5.648,0.397 c -0.268,-0.66 -0.768,-1.381 -0.43,-2.007 0.308,-0.571 1.094,-0.619 1.742,-0.593 l 2.362,0.095 C -0.75,-2.059 0.281,-1.352 0,0"
             style="fill:#a86e51;fill-opacity:1;fill-rule:nonzero;stroke:none"
             id="path354" /></g><g
           id="g356"
           transform="translate(188.4219,386.4966)"><path
             d="m 0,0 c 0.407,-1.748 1.602,-3.229 3.013,-4.337 0.673,-0.528 1.406,-0.99 2.209,-1.285 1.064,-0.391 2.216,-0.48 3.35,-0.457 2.817,0.058 5.576,0.777 8.272,1.594 2.246,0.681 4.157,1.743 6.564,1.379 1.259,-0.19 2.495,-0.548 3.766,-0.617 -0.713,0.604 -1.309,1.347 -1.745,2.173 1.994,-0.113 3.989,-0.225 5.983,-0.338 -2.958,4.392 -7.81,7.459 -13.046,8.246 0.653,0.218 1.347,0.309 2.033,0.266 C 17.44,7.217 14.421,7.615 11.407,7.454 8.062,7.274 4.75,6.418 2.077,4.374 0.573,3.224 -0.458,1.969 0,0"
             style="fill:#2c2c2c;fill-opacity:1;fill-rule:nonzero;stroke:none"
             id="path358" /></g><g
           id="g360"
           transform="translate(149.6162,368.8013)"><path
             d="m 0,0 c 0.405,2.763 1.013,5.495 1.373,8.264 0.38,2.928 1.372,5.831 2.113,8.689 0.181,0.693 0.36,1.429 0.153,2.115 -0.679,2.249 -4.814,3.487 -3.955,6.307 0.302,0.993 1.082,1.757 1.832,2.474 2.201,2.104 4.477,4.257 7.304,5.389 0.831,0.333 1.71,0.574 2.605,0.605 0.651,0.023 1.339,-0.078 1.854,-0.477 2.206,-1.704 -0.817,-6.41 -1.973,-7.915 C 10.813,24.81 10.268,24.19 9.954,23.445 9.72,22.891 9.623,22.291 9.534,21.696 7.808,10.269 7.73,-1.362 8.562,-12.889 6.166,-13.458 3.69,-13.69 1.23,-13.575 c -1.133,0.053 -1.831,0.339 -1.814,1.472 0.019,1.277 -0.017,2.561 -0.017,3.844 0,2.763 0.201,5.526 0.601,8.259"
             style="fill:#c2805b;fill-opacity:1;fill-rule:nonzero;stroke:none"
             id="path362" /></g><g
           id="g364"
           transform="translate(148.04,355.5923)"><path
             d="m 0,0 c 0.075,-3.588 0.451,-7.104 1.525,-10.612 1.457,-4.758 4.426,-8.873 7.799,-12.463 3.191,-3.396 7.565,-6.199 9.691,-10.45 0.401,-0.803 0.721,-1.682 0.655,-2.577 -0.078,-1.075 -0.702,-2.033 -1.403,-2.853 -1.493,-1.743 -3.398,-3.076 -5.301,-4.359 -12.305,-8.294 -31.668,-20.059 -24.598,-37.799 2.035,-5.106 5.584,-8.333 10.05,-11.286 -3.411,2.255 -3.993,6.556 -4.782,10.2 -1.011,4.669 -0.223,9.1 2.448,13.12 3.781,5.692 10.111,10.416 16.494,12.55 5.777,1.931 11.813,3.21 17.256,5.945 5.626,2.827 9.62,7.345 10.392,13.688 0.294,2.416 0.492,4.937 0.013,7.341 -0.265,1.326 -1.333,4.832 -2.761,5.239 -1.196,0.341 -2.579,-0.265 -3.828,-0.125 -1.602,0.18 -3.025,0.718 -4.423,1.511 -4.367,2.477 -7.906,6.243 -10.635,10.457 -3.231,4.989 -6.086,10.66 -6.297,16.632 C 12.274,4.768 6.964,4.578 6.421,4.53 4.948,4.398 0.031,5.059 -0.003,2.926 -0.019,1.945 -0.02,0.97 0,0"
             style="fill:#729bc9;fill-opacity:1;fill-rule:nonzero;stroke:none"
             id="path366" /></g><g
           id="g368"
           transform="translate(170.0366,356.0312)"><path
             d="m 0,0 c -0.294,-3.652 1.851,-7.381 5.156,-8.962 0.729,-0.349 1.567,-0.602 2.338,-0.363 0.672,0.209 1.183,0.758 1.574,1.343 1.832,2.738 1.234,6.217 -0.016,9.077 C 8.067,3.348 4.795,5.524 2.398,4.28 0.87,3.487 0.131,1.632 0,0"
             style="fill:#c2805b;fill-opacity:1;fill-rule:nonzero;stroke:none"
             id="path370" /></g><g
           id="g372"
           transform="translate(175.3301,357.5356)"><path
             d="m 0,0 c 1.415,-1.08 2.154,-2.824 2.613,-4.543 0.183,-0.684 0.332,-1.394 0.242,-2.095 -0.178,-1.389 -1.726,-2.579 -3.013,-1.587 -1.039,0.803 -1.744,2.953 -1.201,4.146 0.297,0.652 1.08,1.118 1.751,0.865 -0.09,1.271 -1.362,2.332 -2.628,2.192 C -2.438,-1.044 -2.644,-1.095 -2.811,-1.213 -3.129,-1.439 -3.238,-1.854 -3.326,-2.234 -3.49,-0.36 -1.704,1.3 0,0"
             style="fill:#a86e51;fill-opacity:1;fill-rule:nonzero;stroke:none"
             id="path374" /></g><g
           id="g376"
           transform="translate(154.7593,443.9346)"><path
             d="m 0,0 21.354,-39.063 -51.712,-28.268 -21.354,39.063 z"
             style="fill:#f3a76f;fill-opacity:1;fill-rule:nonzero;stroke:none"
             id="path378" /></g><g
           id="g380"
           transform="translate(155.624,442.353)"><path
             d="m 0,0 18.673,-34.161 -51.712,-28.267 -18.673,34.161 z"
             style="fill:#e4e5e6;fill-opacity:1;fill-rule:nonzero;stroke:none"
             id="path382" /></g><g
           id="g384"
           transform="translate(157.4395,439.0322)"><path
             d="m 0,0 18.673,-34.161 -51.712,-28.267 -18.673,34.16 z"
             style="fill:#f8c484;fill-opacity:1;fill-rule:nonzero;stroke:none"
             id="path386" /></g><g
           id="g388"
           transform="translate(158.0391,393.6201)"><path
             d="m 0,0 c -0.464,0.147 -0.896,0.428 -1.241,0.863 -0.98,1.239 -0.43,3.11 0.021,4.447 0.154,0.455 3.096,5.041 3.405,4.521 -0.866,1.458 -1.664,3.03 -1.745,4.725 -0.081,1.694 0.733,3.537 2.303,4.181 C 2.914,17.751 2.91,16.726 3.248,15.784 3.563,14.906 4.153,14.159 4.611,13.347 6.719,9.608 5.816,4.231 3.135,0.969 2.39,0.063 1.103,-0.348 0,0"
             style="fill:#c2805b;fill-opacity:1;fill-rule:nonzero;stroke:none"
             id="path390" /></g><g
           id="g392"
           transform="translate(158.6973,368.3794)"><path
             d="M 0,0 C 0.786,0.021 1.746,-0.089 2.06,-0.81 2.479,-1.773 1.313,-2.779 1.45,-3.821 1.532,-4.448 2.06,-4.907 2.378,-5.453 3.066,-6.637 2.722,-8.146 2.192,-9.41 2.075,-9.689 1.929,-9.988 1.655,-10.118 c -0.203,-0.098 -0.441,-0.083 -0.666,-0.068 -3.669,0.233 -7.385,-0.292 -10.847,-1.531 -0.963,-0.346 -2.285,-0.63 -2.802,0.253 -0.385,0.659 0.02,1.49 0.471,2.107 0.45,0.616 0.983,1.307 0.837,2.057 -0.087,0.448 -0.406,0.813 -0.58,1.236 -0.519,1.269 0.359,2.705 0.163,4.063 -0.535,3.7 0.712,2.27 3.671,1.897 C -5.412,-0.442 -2.691,-0.073 0,0"
             style="fill:#bacfe2;fill-opacity:1;fill-rule:nonzero;stroke:none"
             id="path394" /></g><g
           id="g396"
           transform="translate(215.5928,253.6348)"><path
             d="m 0,0 c 0.264,-0.773 0.778,-1.712 1.586,-1.592 0.734,0.108 1.019,1.04 0.928,1.776 -0.24,1.923 -1.867,3.424 -2.246,5.325 -0.065,0.326 -0.089,0.682 0.065,0.978 0.163,0.312 0.49,0.5 0.711,0.774 0.53,0.654 0.341,1.634 -0.04,2.384 -0.336,0.662 -0.799,1.258 -1.358,1.746 -0.772,0.677 -2.197,1.216 -2.97,0.197 C -3.961,10.749 -3.198,9.384 -2.914,8.55 -1.943,5.7 -0.972,2.85 0,0"
             style="fill:#262533;fill-opacity:1;fill-rule:nonzero;stroke:none"
             id="path398" /></g><g
           id="g400"
           transform="translate(207.8174,256.0273)"><path
             d="m 0,0 c 0.572,-2.402 1.144,-4.805 1.716,-7.208 0.059,-0.247 0.125,-0.508 0.303,-0.69 0.398,-0.41 1.077,-0.211 1.608,-0.002 1.937,0.758 3.967,1.284 6.029,1.56 C 9.873,-6.894 9.325,-7.432 8.825,-7.752 7.609,-8.533 6.292,-9.158 4.919,-9.609 4.087,-9.883 2.467,-10.598 1.613,-10.125 c -0.886,0.489 -1.255,2.401 -1.521,3.287 -0.379,1.26 -0.655,2.567 -0.718,3.883 -0.019,0.387 -0.025,1.814 0.386,1.806 0.324,-0.007 0.786,-1.025 0.842,-1.292"
             style="fill:#262533;fill-opacity:1;fill-rule:nonzero;stroke:none"
             id="path402" /></g><g
           id="g404"
           transform="translate(213.334,251.52)"><path
             d="M 0,0 C 0.207,0.11 0.355,0.303 0.482,0.5 1.372,1.866 0.668,3.346 -0.124,4.642 -0.35,5.011 -0.635,5.386 -1.049,5.511 -1.409,5.619 -1.826,5.502 -2.078,5.224 -3.055,4.14 -2.214,-1.179 0,0"
             style="fill:#ffffff;fill-opacity:1;fill-rule:nonzero;stroke:none"
             id="path406" /></g><g
           id="g408"
           transform="translate(193.874,364.5703)"><path
             d="m 0,0 c -2.497,-0.041 -3.923,-3.283 -3.43,-5.383 0.136,-0.58 0.618,-0.811 0.933,-0.363 0.877,1.247 1.334,2.944 2.717,3.084 1.566,0.158 2.772,-1.836 3.592,-3.567 0.14,-0.296 0.47,-0.123 0.406,0.251 C 3.702,-2.944 2.364,0.038 0,0"
             style="fill:#0d0d0d;fill-opacity:1;fill-rule:nonzero;stroke:none"
             id="path410" /></g><g
           id="g412"
           transform="translate(197.5166,358.1602)"><path
             d="m 0,0 c 0,-2.425 -0.971,-4.39 -2.168,-4.39 -1.198,0 -2.169,1.965 -2.169,4.39 0,2.425 0.971,4.39 2.169,4.39 C -0.971,4.39 0,2.425 0,0"
             style="fill:#0d0d0d;fill-opacity:1;fill-rule:nonzero;stroke:none"
             id="path414" /></g><g
           id="g416"
           transform="translate(194.9917,357.1641)"><path
             d="m 0,0 c 0,-0.55 -0.667,-0.996 -1.49,-0.996 -0.823,0 -1.489,0.446 -1.489,0.996 0,0.55 0.666,0.996 1.489,0.996 C -0.667,0.996 0,0.55 0,0"
             style="fill:#ffffff;fill-opacity:1;fill-rule:nonzero;stroke:none"
             id="path418" /></g><g
           id="g420"
           transform="translate(337.332,60.7412)"><path
             d="m 0,0 c 0,-7.589 -39.1,-13.741 -87.332,-13.741 -48.232,0 -87.333,6.152 -87.333,13.741 0,7.59 39.101,13.742 87.333,13.742 C -39.1,13.742 0,7.59 0,0"
             style="fill:#c2c4c6;fill-opacity:1;fill-rule:nonzero;stroke:none"
             id="path422" /></g></g></g><g
       id="g424"><g
         id="g426"
         clip-path="url(#clipPath430)"><g
           id="g432"
           transform="translate(260.1045,34.5342)"><path
             d="m 0,0 c -0.433,-0.442 -0.804,-0.931 -1.108,-1.453 l -0.466,0.241 c -0.067,0.298 -0.349,0.503 -0.658,0.467 -0.331,-0.039 -0.569,-0.339 -0.53,-0.67 0.039,-0.331 0.339,-0.568 0.67,-0.529 0.066,0.007 0.127,0.026 0.184,0.052 l 0.451,-0.234 C -1.708,-2.68 -1.89,-3.265 -1.996,-3.87 l 0.746,-0.131 c 0.23,1.306 0.85,2.506 1.792,3.472 z"
             style="fill:#1d262d;fill-opacity:1;fill-rule:nonzero;stroke:none"
             id="path434" /></g><g
           id="g436"
           transform="translate(265.5918,36.8369)"><path
             d="m 0,0 c -0.171,0 -0.341,-0.007 -0.51,-0.018 l -0.073,0.626 c 0.187,0.15 0.296,0.39 0.266,0.645 C -0.363,1.646 -0.72,1.928 -1.113,1.882 -1.506,1.835 -1.787,1.479 -1.741,1.086 -1.711,0.832 -1.552,0.625 -1.336,0.522 l 0.073,-0.624 c -0.714,-0.116 -1.403,-0.332 -2.059,-0.646 l 0.327,-0.684 c 0.933,0.448 1.941,0.673 2.995,0.673 0.496,0 0.993,-0.053 1.475,-0.157 l 0.161,0.741 C 1.101,-0.06 0.551,0 0,0"
             style="fill:#1d262d;fill-opacity:1;fill-rule:nonzero;stroke:none"
             id="path438" /></g><g
           id="g440"
           transform="translate(272.1943,34.2891)"><path
             d="M 0,0 C 0.331,0.041 0.566,0.342 0.525,0.673 0.485,1.004 0.184,1.238 -0.146,1.198 -0.456,1.16 -0.682,0.895 -0.677,0.59 L -1.093,0.227 c -0.418,0.429 -0.889,0.812 -1.408,1.138 l -0.403,-0.64 c 1.133,-0.715 2.02,-1.727 2.563,-2.926 l 0.691,0.312 c -0.251,0.555 -0.568,1.073 -0.943,1.545 L -0.19,0.008 C -0.13,-0.005 -0.065,-0.008 0,0"
             style="fill:#1d262d;fill-opacity:1;fill-rule:nonzero;stroke:none"
             id="path442" /></g><g
           id="g444"
           transform="translate(265.0439,26.6279)"><path
             d="m 0,0 c -0.386,-0.023 -0.774,-0.034 -1.157,-0.034 -0.88,0 -1.733,0.06 -2.478,0.179 -0.39,0.062 -0.846,0.155 -1.27,0.292 1.046,-1.861 3.069,-3.125 5.388,-3.125 2.856,0 5.262,1.916 5.95,4.503 C 5.751,1.366 4.927,0.99 3.974,0.692 2.795,0.325 1.42,0.086 0,0"
             style="fill:#1d262d;fill-opacity:1;fill-rule:nonzero;stroke:none"
             id="path446" /></g><g
           id="g448"
           transform="translate(268.1699,29.7139)"><path
             d="M 0,0 C -0.75,0 -1.36,0.61 -1.36,1.36 -1.36,2.11 -0.75,2.721 0,2.721 0.75,2.721 1.36,2.11 1.36,1.36 1.36,0.61 0.75,0 0,0 m -4.737,-0.908 c -1.021,0 -1.85,0.83 -1.85,1.849 0,1.021 0.829,1.85 1.85,1.85 1.019,0 1.849,-0.829 1.849,-1.85 0,-1.019 -0.83,-1.849 -1.849,-1.849 m 2.159,6.514 c -3.353,0 -6.079,-2.666 -6.079,-5.943 0,-0.426 0.046,-0.849 0.136,-1.262 0.674,-0.482 2.707,-0.889 5.348,-0.73 2.879,0.173 5.297,0.957 6.672,2.158 C 3.494,0.024 3.479,0.22 3.454,0.411 3.074,3.373 0.48,5.606 -2.578,5.606"
             style="fill:#1d262d;fill-opacity:1;fill-rule:nonzero;stroke:none"
             id="path450" /></g><g
           id="g452"
           transform="translate(281.5957,33.4531)"><path
             d="M 0,0 C -0.295,0.116 -0.806,0.309 -1.383,0.237 -1.934,0.169 -2.227,-0.103 -2.227,-0.77 v -0.865 h 2.228 v -1.718 h -2.228 v -5.454 h -1.931 v 5.454 h -1.34 v 1.718 h 1.34 v 0.888 c 0,1.681 0.895,2.783 2.568,2.783 0.643,0 1.157,-0.122 1.59,-0.308 z"
             style="fill:#1d262d;fill-opacity:1;fill-rule:nonzero;stroke:none"
             id="path454" /></g><g
           id="g456"
           transform="translate(286.2979,30.1211)"><path
             d="m 0,0 c -0.177,0.03 -0.357,0.047 -0.526,0.047 -0.896,0 -1.51,-0.548 -1.51,-1.614 v -3.908 h -1.932 v 7.172 h 1.873 V 0.912 c 0.451,0.674 1.14,0.978 2.021,0.978 0.414,0 0.847,-0.128 1.094,-0.337 z"
             style="fill:#1d262d;fill-opacity:1;fill-rule:nonzero;stroke:none"
             id="path458" /></g><g
           id="g460"
           transform="translate(288.8506,28.9092)"><path
             d="M 0,0 H 3.176 C 2.998,0.918 2.442,1.436 1.613,1.436 0.703,1.436 0.171,0.889 0,0 m 5.114,-0.666 c 0,-0.222 -0.014,-0.488 -0.037,-0.651 h -5.084 c 0.207,-1.037 0.933,-1.488 1.843,-1.488 0.621,0 1.295,0.251 1.813,0.688 L 4.781,-3.36 c -0.813,-0.747 -1.85,-1.088 -3.056,-1.088 -2.199,0 -3.723,1.495 -3.723,3.753 0,2.257 1.48,3.797 3.626,3.797 2.065,0 3.479,-1.533 3.486,-3.768"
             style="fill:#1d262d;fill-opacity:1;fill-rule:nonzero;stroke:none"
             id="path462" /></g><g
           id="g464"
           transform="translate(296.5039,28.9092)"><path
             d="M 0,0 H 3.176 C 2.998,0.918 2.442,1.436 1.613,1.436 0.703,1.436 0.17,0.889 0,0 m 5.114,-0.666 c 0,-0.222 -0.014,-0.488 -0.037,-0.651 h -5.084 c 0.207,-1.037 0.932,-1.488 1.843,-1.488 0.621,0 1.295,0.251 1.813,0.688 L 4.781,-3.36 c -0.813,-0.747 -1.85,-1.088 -3.056,-1.088 -2.199,0 -3.723,1.495 -3.723,3.753 0,2.257 1.48,3.797 3.626,3.797 2.065,0 3.479,-1.533 3.486,-3.768"
             style="fill:#1d262d;fill-opacity:1;fill-rule:nonzero;stroke:none"
             id="path466" /></g><g
           id="g468"
           transform="translate(304.2871,28.2354)"><path
             d="m 0,0 c 0,-1.132 0.748,-1.976 1.843,-1.976 1.139,0 1.85,0.881 1.85,1.976 0,1.096 -0.711,1.977 -1.85,1.977 C 0.748,1.977 0,1.133 0,0 m 5.677,0 c 0,-2.153 -1.495,-3.774 -3.471,-3.774 -0.963,0 -1.644,0.378 -2.109,0.932 V -6.55 H -1.828 V 3.583 H 0.06 V 2.791 C 0.525,3.375 1.214,3.775 2.198,3.775 4.182,3.775 5.677,2.154 5.677,0"
             style="fill:#1d262d;fill-opacity:1;fill-rule:nonzero;stroke:none"
             id="path470" /></g><path
           d="m 312.809,24.646 h -1.932 v 7.172 h 1.932 z m 0.258,9.518 c 0,-0.695 -0.54,-1.228 -1.235,-1.228 -0.696,0 -1.229,0.533 -1.229,1.228 0,0.696 0.533,1.243 1.229,1.243 0.695,0 1.235,-0.547 1.235,-1.243"
           style="fill:#1d262d;fill-opacity:1;fill-rule:nonzero;stroke:none"
           id="path472" /><g
           id="g474"
           transform="translate(316.0322,29.2646)"><path
             d="M 0,0 2.701,2.554 H 5.07 L 1.591,-0.821 5.092,-4.618 H 2.716 L 0,-1.717 V -4.618 H -1.932 V 6.039 H 0 Z"
             style="fill:#1d262d;fill-opacity:1;fill-rule:nonzero;stroke:none"
             id="path476" /></g><g
           id="g478"
           transform="translate(184.4126,26.6299)"><path
             d="m 0,0 v 3.208 c -0.396,0.615 -1.245,1.143 -2.124,1.143 -1.421,0 -2.271,-1.172 -2.271,-2.74 0,-1.567 0.85,-2.724 2.271,-2.724 0.879,0 1.728,0.498 2.124,1.113 m 0,-1.919 v 1.055 c -0.527,-0.718 -1.392,-1.231 -2.388,-1.231 -1.845,0 -3.149,1.407 -3.149,3.706 0,2.256 1.289,3.721 3.149,3.721 0.952,0 1.817,-0.469 2.388,-1.245 v 3.765 h 1.099 v -9.771 z"
             style="fill:#1d262d;fill-opacity:1;fill-rule:nonzero;stroke:none"
             id="path480" /></g><g
           id="g482"
           transform="translate(190.4033,31.0537)"><path
             d="M 0,0 C -1.509,0 -2.256,-1.274 -2.314,-2.358 H 2.329 C 2.314,-1.304 1.611,0 0,0 m -3.471,-2.798 c 0,2.051 1.464,3.706 3.486,3.706 2.138,0 3.398,-1.67 3.398,-3.794 v -0.278 h -5.727 c 0.087,-1.333 1.025,-2.446 2.548,-2.446 0.806,0 1.626,0.322 2.183,0.893 L 2.944,-5.435 C 2.241,-6.138 1.289,-6.519 0.132,-6.519 c -2.095,0 -3.603,1.509 -3.603,3.721"
             style="fill:#1d262d;fill-opacity:1;fill-rule:nonzero;stroke:none"
             id="path484" /></g><g
           id="g486"
           transform="translate(194.6069,25.6484)"><path
             d="M 0,0 0.571,0.791 C 1.04,0.249 1.934,-0.22 2.9,-0.22 c 1.084,0 1.67,0.513 1.67,1.216 0,1.714 -4.38,0.659 -4.38,3.281 0,1.099 0.953,2.036 2.637,2.036 1.201,0 2.051,-0.454 2.622,-1.025 L 4.936,4.526 C 4.512,5.039 3.735,5.42 2.827,5.42 1.86,5.42 1.26,4.937 1.26,4.307 1.26,2.754 5.639,3.779 5.639,1.025 5.639,-0.161 4.687,-1.113 2.856,-1.113 1.699,-1.113 0.718,-0.762 0,0"
             style="fill:#1d262d;fill-opacity:1;fill-rule:nonzero;stroke:none"
             id="path488" /></g><path
           d="m 201.667,31.786 h 1.099 v -7.075 h -1.099 z m -0.19,1.743 c 0,0.41 0.337,0.747 0.732,0.747 0.411,0 0.747,-0.337 0.747,-0.747 0,-0.41 -0.336,-0.732 -0.747,-0.732 -0.395,0 -0.732,0.322 -0.732,0.732"
           style="fill:#1d262d;fill-opacity:1;fill-rule:nonzero;stroke:none"
           id="path490" /><g
           id="g492"
           transform="translate(209.7085,26.7471)"><path
             d="m 0,0 v 3.091 c -0.381,0.615 -1.23,1.142 -2.109,1.142 -1.421,0 -2.27,-1.128 -2.27,-2.695 0,-1.553 0.849,-2.695 2.27,-2.695 0.879,0 1.728,0.542 2.109,1.157 m -5.126,-3.853 0.556,0.821 c 0.586,-0.703 1.289,-0.967 2.3,-0.967 1.172,0 2.27,0.571 2.27,2.124 v 1.011 c -0.512,-0.718 -1.376,-1.26 -2.373,-1.26 -1.845,0 -3.149,1.377 -3.149,3.662 0,2.271 1.289,3.677 3.149,3.677 0.952,0 1.802,-0.469 2.373,-1.245 v 1.069 h 1.099 v -6.87 c 0,-2.344 -1.641,-3.076 -3.369,-3.076 -1.201,0 -2.022,0.234 -2.856,1.054"
             style="fill:#1d262d;fill-opacity:1;fill-rule:nonzero;stroke:none"
             id="path494" /></g><g
           id="g496"
           transform="translate(217.4131,24.7109)"><path
             d="M 0,0 V 4.629 C 0,5.874 -0.629,6.27 -1.582,6.27 -2.446,6.27 -3.267,5.742 -3.676,5.171 V 0 h -1.099 v 7.075 h 1.099 V 6.05 c 0.498,0.586 1.464,1.201 2.519,1.201 1.479,0 2.256,-0.747 2.256,-2.285 L 1.099,0 Z"
             style="fill:#1d262d;fill-opacity:1;fill-rule:nonzero;stroke:none"
             id="path498" /></g><g
           id="g500"
           transform="translate(223.4043,31.0537)"><path
             d="M 0,0 C -1.509,0 -2.256,-1.274 -2.314,-2.358 H 2.329 C 2.314,-1.304 1.611,0 0,0 m -3.472,-2.798 c 0,2.051 1.465,3.706 3.487,3.706 2.138,0 3.398,-1.67 3.398,-3.794 v -0.278 h -5.727 c 0.087,-1.333 1.025,-2.446 2.548,-2.446 0.806,0 1.626,0.322 2.183,0.893 L 2.944,-5.435 C 2.241,-6.138 1.289,-6.519 0.132,-6.519 c -2.095,0 -3.604,1.509 -3.604,3.721"
             style="fill:#1d262d;fill-opacity:1;fill-rule:nonzero;stroke:none"
             id="path502" /></g><g
           id="g504"
           transform="translate(233.3501,26.6299)"><path
             d="m 0,0 v 3.208 c -0.396,0.615 -1.245,1.143 -2.124,1.143 -1.421,0 -2.271,-1.172 -2.271,-2.74 0,-1.567 0.85,-2.724 2.271,-2.724 0.879,0 1.728,0.498 2.124,1.113 m 0,-1.919 v 1.055 c -0.527,-0.718 -1.392,-1.231 -2.388,-1.231 -1.845,0 -3.149,1.407 -3.149,3.706 0,2.256 1.289,3.721 3.149,3.721 0.952,0 1.817,-0.469 2.388,-1.245 v 3.765 h 1.099 v -9.771 z"
             style="fill:#1d262d;fill-opacity:1;fill-rule:nonzero;stroke:none"
             id="path506" /></g><g
           id="g508"
           transform="translate(242.8999,25.5166)"><path
             d="M 0,0 C 1.436,0 2.285,1.157 2.285,2.725 2.285,4.292 1.436,5.464 0,5.464 -0.864,5.464 -1.729,4.937 -2.109,4.321 V 1.113 C -1.729,0.498 -0.864,0 0,0 m -3.208,-0.806 v 9.771 h 1.099 V 5.2 c 0.571,0.777 1.421,1.245 2.387,1.245 1.846,0 3.15,-1.465 3.15,-3.72 0,-2.3 -1.304,-3.706 -3.15,-3.706 -0.996,0 -1.86,0.512 -2.387,1.23 v -1.055 z"
             style="fill:#1d262d;fill-opacity:1;fill-rule:nonzero;stroke:none"
             id="path510" /></g><g
           id="g512"
           transform="translate(247.5283,22.9385)"><path
             d="m 0,0 c 0.161,-0.073 0.425,-0.117 0.601,-0.117 0.483,0 0.805,0.161 1.055,0.747 l 0.469,1.069 -2.96,7.149 H 0.352 L 2.71,3.047 5.054,8.848 H 6.255 L 2.71,0.337 C 2.285,-0.688 1.567,-1.084 0.63,-1.099 c -0.234,0 -0.601,0.044 -0.805,0.103 z"
             style="fill:#1d262d;fill-opacity:1;fill-rule:nonzero;stroke:none"
             id="path514" /></g></g></g></g></svg>
